<?xml version="1.0" standalone="no"?>
<!DOCTYPE svg PUBLIC "-//W3C//DTD SVG 20010904//EN"
 "http://www.w3.org/TR/2001/REC-SVG-20010904/DTD/svg10.dtd">
<svg version="1.0" xmlns="http://www.w3.org/2000/svg"
 width="1024.000000pt" height="1024.000000pt" viewBox="0 0 1024.000000 1024.000000"
 preserveAspectRatio="xMidYMid meet">

<g transform="translate(0.000000,1024.000000) scale(0.100000,-0.100000)"
fill="#000000" stroke="none">
<path d="M8969 9283 c-41 -43 -78 -79 -82 -80 -7 -1 -72 -43 -207 -133 -34
-23 -130 -60 -285 -110 -170 -56 -284 -115 -361 -187 -108 -101 -154 -204
-154 -341 0 -71 3 -83 29 -118 38 -52 59 -69 103 -83 32 -11 39 -18 48 -54 6
-23 15 -55 20 -70 7 -23 6 -26 -4 -17 -10 8 -15 7 -19 -4 -4 -9 -2 -18 3 -21
16 -10 12 -33 -5 -31 -8 1 -18 5 -21 9 -13 12 -34 7 -34 -8 0 -8 5 -15 11 -15
5 0 8 -4 4 -10 -3 -5 -12 -7 -19 -4 -8 3 -20 -2 -27 -11 -51 -62 -44 -61 -110
-4 -32 28 -69 63 -80 77 -16 21 -28 26 -55 23 -20 -1 -34 2 -34 9 0 7 8 9 19
5 27 -8 37 14 15 33 -15 14 -16 14 -6 1 14 -18 6 -30 -13 -22 -8 3 -22 -10
-34 -34 -20 -37 -24 -34 -22 17 0 14 -2 19 -5 12 -9 -19 -24 -4 -24 24 0 13
-4 24 -10 24 -33 0 39 -162 104 -235 47 -52 63 -85 41 -85 -12 0 -63 -50 -198
-195 l-56 -60 -46 45 c-45 44 -47 44 -61 25 -61 -83 -343 -370 -353 -360 -2 3
12 22 32 43 20 21 37 42 37 46 0 5 -11 -3 -25 -18 -13 -14 -33 -26 -45 -26
-11 0 -20 -4 -20 -10 0 -5 -4 -10 -10 -10 -15 0 -12 21 7 42 15 17 15 18 -2
18 -10 0 -26 -10 -36 -22 -16 -17 -19 -18 -19 -5 0 10 -6 17 -12 18 -7 0 -3 4
9 9 15 6 20 15 16 29 -3 12 -10 18 -15 15 -13 -9 -28 15 -28 45 0 13 -3 21 -7
17 -8 -7 -9 -11 -12 -37 0 -5 -5 -7 -11 -4 -5 3 -10 1 -10 -5 0 -6 -4 -9 -10
-5 -5 3 -7 12 -4 20 4 8 9 13 13 10 4 -2 8 2 8 10 0 8 -5 11 -10 8 -6 -4 -8 0
-4 9 12 32 -7 26 -49 -14 -24 -23 -40 -46 -37 -52 3 -6 2 -7 -3 -3 -4 4 -44
-27 -88 -70 -130 -129 -569 -575 -614 -624 l-42 -46 51 -23 c54 -26 126 -96
155 -151 28 -55 31 -172 4 -241 -58 -155 -227 -246 -408 -220 -71 10 -221 60
-248 83 -8 6 1 21 29 50 l39 42 44 -21 c196 -96 427 3 427 182 0 59 -12 87
-56 134 -51 53 -145 65 -201 26 -43 -30 -46 -22 -46 124 1 106 4 141 16 157 8
11 149 155 312 320 500 506 635 645 627 645 -4 0 3 9 16 20 13 10 18 19 12 20
-7 0 -13 -5 -13 -12 0 -6 -3 -8 -6 -5 -4 4 -2 13 4 20 7 8 8 18 4 23 -4 4 1 2
11 -5 11 -9 17 -10 17 -2 0 6 3 10 8 10 19 -3 22 3 12 21 -9 17 -7 22 17 32
15 6 31 11 36 10 4 -1 6 3 5 10 -2 6 14 20 35 31 24 14 36 26 32 35 -3 10 0
12 10 8 16 -6 24 6 29 41 2 10 10 17 19 17 13 -1 15 34 16 290 l2 291 -47 -45
c-25 -25 -78 -79 -117 -120 -40 -40 -117 -119 -172 -175 -55 -55 -192 -194
-304 -308 -113 -114 -211 -207 -218 -207 -8 0 -23 4 -33 10 -14 7 -19 5 -23
-10 -5 -21 -27 -28 -27 -9 0 5 5 7 10 4 6 -3 10 -1 10 4 0 6 -4 11 -9 11 -16
0 -28 -25 -35 -72 -7 -48 -39 -105 -66 -118 -8 -4 -41 -21 -73 -36 -93 -45
-158 -128 -187 -233 -7 -27 -27 -61 -52 -87 -43 -45 -77 -95 -85 -128 -17 -61
-14 -150 6 -215 l21 -66 -34 -70 c-19 -38 -35 -64 -35 -56 -1 10 -4 11 -14 2
-8 -6 -17 -8 -20 -4 -4 3 -7 0 -7 -8 -1 -8 -7 -3 -15 11 l-13 25 -7 -28 c-5
-18 -12 -26 -21 -23 -8 3 -11 0 -7 -10 3 -7 0 -14 -6 -14 -6 0 -8 -7 -4 -17 4
-11 3 -14 -5 -9 -20 12 -52 15 -52 5 0 -5 -7 -9 -15 -9 -9 0 -15 -10 -16 -22
-1 -17 -3 -18 -6 -6 -3 13 -11 16 -33 11 -25 -5 -28 -3 -23 16 8 30 -6 26 -17
-5 -6 -14 -14 -22 -20 -19 -5 3 -10 1 -10 -4 0 -6 -4 -11 -10 -11 -5 0 -10 7
-10 15 0 8 7 15 15 15 8 0 15 5 15 10 0 7 -6 7 -20 0 -14 -8 -20 -21 -20 -47
0 -20 -3 -33 -7 -30 -3 4 -13 1 -22 -6 -12 -9 -11 -7 2 13 9 13 17 31 16 40 0
10 -2 11 -6 3 -2 -7 -11 -13 -18 -13 -8 0 -16 -10 -18 -22 -4 -20 -4 -20 -6 4
0 14 5 28 12 31 8 3 7 7 -5 12 -11 4 -24 1 -33 -9 -20 -19 -32 -20 -38 -3 -3
6 -6 -13 -7 -43 -1 -30 -5 -77 -10 -105 -7 -46 -8 -47 -10 -15 -1 19 -1 40 1
45 1 6 4 39 6 75 2 46 0 61 -7 50 -5 -8 -10 -30 -10 -49 0 -33 -38 -121 -67
-153 -8 -9 -12 -21 -9 -26 3 -5 -2 -9 -11 -8 -20 1 -29 -21 -11 -27 7 -2 2 -2
-12 0 -23 4 -24 4 -7 -15 23 -26 22 -39 -2 -17 -20 17 -20 16 -9 -21 5 -22 14
-44 19 -50 5 -6 6 -14 2 -17 -3 -4 1 -7 10 -7 10 0 14 -5 11 -14 -9 -23 -31
-26 -46 -8 -12 15 -11 16 4 4 21 -16 33 1 13 18 -8 7 -13 16 -10 20 3 4 -3 11
-12 15 -10 3 -19 1 -21 -5 -2 -6 -10 -17 -19 -25 -11 -11 -11 -15 -1 -15 7 0
4 -9 -9 -22 -13 -12 -26 -19 -30 -14 -4 4 -2 10 5 15 9 5 9 12 -3 27 -14 18
-14 18 -8 -3 4 -17 1 -23 -11 -23 -14 0 -95 -37 -106 -49 -3 -4 -23 -15 -45
-26 -51 -25 -147 -100 -206 -162 -46 -47 -100 -124 -147 -207 -12 -22 -26 -43
-30 -46 -5 -3 -11 -13 -15 -22 -3 -10 -13 -18 -22 -18 -8 0 -14 -3 -14 -7 4
-25 -3 -42 -18 -46 -20 -4 -74 21 -86 41 -5 7 -13 10 -18 6 -6 -3 -3 -11 7
-19 17 -12 17 -14 0 -40 l-17 -26 -18 20 c-10 11 -21 18 -25 14 -3 -3 -6 1 -6
10 0 9 -4 17 -10 17 -5 0 -10 -7 -10 -15 0 -8 -9 -20 -20 -27 -11 -7 -20 -23
-20 -35 0 -14 -6 -23 -15 -23 -17 0 -19 9 -5 30 6 10 3 20 -10 32 -21 20 -35
24 -25 8 3 -5 -3 -10 -14 -10 -12 0 -21 -5 -21 -10 0 -6 10 -8 24 -4 13 3 27
1 31 -6 11 -17 -5 -27 -16 -10 -8 11 -12 12 -16 3 -2 -7 -11 -13 -19 -13 -8 0
-14 -5 -14 -11 0 -5 -10 -9 -22 -7 -11 2 -23 -2 -25 -9 -3 -7 3 -9 18 -6 19 5
20 3 15 -18 -6 -20 -5 -21 4 -6 6 9 21 17 33 17 17 0 19 2 7 10 -21 13 -6 23
21 15 23 -8 23 -8 -10 -35 -32 -28 -30 -45 6 -34 16 5 16 4 -1 -7 -15 -9 -24
-9 -37 0 -16 9 -18 8 -16 -6 1 -10 -2 -18 -8 -18 -5 0 -10 5 -9 10 1 6 -5 16
-12 23 -9 8 -14 9 -14 2 0 -6 -6 -8 -12 -4 -7 4 -5 -2 5 -13 9 -11 17 -27 17
-36 0 -9 4 -17 8 -17 5 0 9 -6 9 -13 0 -20 126 -267 185 -360 83 -135 256
-386 327 -476 131 -168 304 -367 299 -346 -8 30 85 187 146 248 54 55 141 116
201 142 159 71 378 68 527 -6 85 -42 207 -144 208 -173 0 -5 -3 -6 -7 -2 -4 3
-21 -8 -39 -25 l-32 -31 -50 49 c-85 85 -227 143 -351 143 -87 0 -208 -31
-280 -72 -76 -43 -180 -149 -223 -228 -56 -100 -55 -101 43 -215 196 -226 265
-288 479 -430 183 -121 427 -268 525 -317 106 -54 349 -156 448 -190 85 -29
90 -29 120 -14 18 9 113 32 212 51 221 42 377 75 390 83 6 4 19 5 29 3 14 -2
17 2 13 13 -4 9 -2 16 3 16 6 0 10 -7 10 -15 0 -19 14 -19 29 -2 12 15 -3 37
-27 37 -12 0 -12 3 -1 16 12 14 14 14 21 -5 8 -22 28 -29 28 -10 0 7 11 8 32
4 29 -7 31 -6 16 9 -9 9 -23 16 -32 16 -8 0 -22 7 -30 16 -9 8 -20 13 -26 9
-6 -4 -7 1 -3 11 5 14 2 16 -18 10 -13 -3 -49 -9 -79 -11 -43 -4 -260 -45
-315 -59 -5 -2 -23 -6 -38 -11 -15 -4 -30 -5 -33 -2 -10 10 108 147 130 152
137 31 312 70 401 90 105 23 513 114 695 156 47 10 166 37 265 59 99 22 231
51 293 65 62 13 126 32 142 40 36 19 57 52 41 68 -17 17 -13 37 7 30 14 -5 14
-3 -3 11 -11 10 -14 15 -7 11 18 -9 14 17 -6 40 -18 23 -52 39 -52 26 0 -4 11
-13 23 -20 18 -9 23 -19 19 -37 -2 -13 -8 -21 -13 -19 -4 3 -12 -2 -17 -12 -8
-13 -5 -22 12 -38 20 -19 21 -22 7 -35 -13 -13 -14 -12 -8 3 7 20 -4 22 -21 5
-7 -7 -12 -8 -12 -2 0 5 5 15 12 22 11 11 2 17 -24 14 -3 -1 -9 5 -12 13 -3 9
0 15 9 15 7 0 17 5 21 12 4 6 3 8 -4 5 -6 -5 -8 0 -5 13 3 11 10 20 15 20 5 0
6 -4 3 -10 -3 -5 1 -10 9 -10 19 0 21 26 3 33 -7 3 -25 3 -40 0 -27 -5 -39 11
-14 20 6 2 9 8 5 12 -6 6 -38 1 -178 -31 -14 -3 -61 -12 -105 -20 -44 -8 -93
-19 -110 -24 -16 -5 -104 -25 -195 -44 -91 -20 -208 -45 -260 -56 -52 -11
-151 -32 -220 -46 -69 -14 -192 -41 -275 -59 -82 -19 -151 -32 -154 -30 -2 2
25 33 61 67 61 60 69 64 154 85 133 33 557 136 734 178 171 41 193 50 231 92
37 39 49 66 49 106 0 39 -37 100 -63 105 -12 2 -49 -26 -105 -80 -71 -68 -97
-87 -134 -96 -73 -19 -86 -16 -57 10 19 16 20 20 5 14 -13 -4 -17 -2 -13 8 3
8 1 17 -6 20 -7 2 -3 5 7 5 16 1 17 4 8 13 -7 7 -12 19 -11 28 0 10 3 9 9 -5
l9 -20 0 20 c1 16 3 17 11 5 5 -8 12 -12 15 -8 3 3 0 12 -7 19 -8 8 -20 29
-27 47 -7 17 -18 32 -23 32 -6 0 -5 8 3 17 12 17 12 17 -6 1 -19 -17 -19 -18
0 -33 11 -8 16 -15 10 -15 -5 -1 -18 -3 -27 -5 -12 -2 -15 2 -11 13 4 15 3 15
-10 0 -18 -22 -27 -23 -27 -2 0 9 -5 12 -12 8 -8 -5 -7 0 2 11 14 17 13 18 -5
12 -20 -7 -20 -7 -1 8 11 8 26 15 33 15 7 0 13 7 13 16 0 14 -1 14 -16 0 -18
-19 -30 -20 -39 -5 -5 7 -15 5 -31 -6 -19 -12 -284 -64 -332 -65 -21 0 -12 13
48 77 43 44 56 66 58 92 1 18 7 41 13 50 9 14 10 14 6 0 -3 -8 4 -21 14 -27
18 -11 18 -10 9 8 -5 11 -15 29 -20 40 -7 14 -7 20 1 20 7 0 9 9 5 24 -4 15 0
29 12 39 16 14 21 15 45 2 15 -8 34 -21 43 -30 11 -11 20 -12 34 -5 29 16 41
46 38 92 -3 43 -7 47 -73 73 l-40 16 41 25 c25 15 50 41 64 68 45 84 -2 97
-95 27 -54 -41 -57 -42 -71 -24 -11 13 -13 33 -9 71 5 51 5 52 -22 53 -16 1
-31 1 -35 0 -5 0 -8 4 -8 9 0 6 -11 15 -25 20 -14 5 -25 15 -25 22 0 12 -5 3
-43 -84 -19 -45 -55 -65 -122 -70 -49 -3 -50 -4 -60 -45 -10 -39 -13 -43 -35
-43 -6 0 -15 -12 -21 -27 -8 -20 -13 -24 -17 -13 -8 24 -47 56 -63 52 -8 -2 2
7 22 20 30 19 34 25 23 36 -12 10 -14 10 -14 -4 0 -10 -5 -14 -16 -10 -8 3
-13 2 -10 -3 3 -5 -8 -14 -26 -20 -17 -6 -28 -8 -25 -4 4 3 76 79 160 167 83
88 206 217 273 286 66 69 147 154 179 190 33 36 65 71 72 78 17 18 16 21 -4
17 -10 -2 -22 -4 -26 -4 -5 -1 -5 -5 -2 -11 3 -5 2 -10 -3 -10 -6 0 -13 7 -16
16 -3 8 -2 13 3 10 4 -3 16 3 25 13 15 17 15 19 0 32 -14 11 -18 11 -30 -6 -8
-10 -14 -14 -14 -7 0 7 8 17 19 23 11 7 16 19 13 31 -2 10 1 18 7 18 6 0 11 6
11 14 0 8 6 17 13 19 9 4 9 6 -1 6 -15 1 -42 -23 -42 -38 0 -12 -28 -41 -41
-41 -5 0 -9 5 -9 10 0 6 7 10 15 10 17 0 21 45 5 55 -7 4 -7 12 0 25 8 15 7
17 -11 13 -16 -5 -20 -12 -17 -34 4 -23 1 -29 -14 -29 -20 0 -24 15 -7 26 6 3
9 16 7 28 -5 23 12 46 33 46 7 0 9 3 6 7 -4 3 -2 13 5 22 7 9 -31 -27 -84 -79
-52 -53 -97 -102 -99 -109 -4 -10 -15 -6 -44 14 -36 24 -46 27 -107 22 -107
-7 -170 -61 -193 -164 -9 -43 4 -42 34 2 45 67 139 98 199 66 27 -14 51 -54
27 -45 -8 4 -15 2 -15 -4 0 -6 -15 -19 -32 -31 -33 -20 -675 -657 -690 -684
-5 -10 6 -43 31 -93 44 -89 74 -175 96 -279 25 -118 34 -107 -122 -138 -76
-14 -203 -40 -283 -56 -79 -17 -147 -27 -151 -23 -3 4 -12 30 -18 57 -49 200
-286 438 -506 509 -67 21 -235 46 -316 46 l-66 0 -7 50 -7 51 -37 -7 c-144
-25 -252 -58 -360 -111 -64 -31 -121 -59 -126 -61 -5 -3 -6 3 -3 12 4 10 3 15
-3 11 -6 -4 -9 -14 -8 -23 2 -11 -3 -17 -14 -16 -10 1 -16 -2 -13 -6 3 -5 -4
-11 -15 -15 -11 -4 -18 -11 -15 -16 3 -5 -1 -6 -9 -3 -9 3 -19 -5 -28 -23 -10
-20 -20 -27 -36 -25 -12 2 -22 -2 -22 -8 0 -6 -15 -10 -35 -8 -19 1 -35 4 -35
6 0 15 81 110 148 174 145 138 347 258 505 298 191 48 442 52 607 10 204 -53
429 -198 537 -347 l30 -42 295 293 295 292 7 74 c4 41 17 92 28 114 12 25 101
121 231 248 l212 208 160 69 c88 38 190 82 228 96 l67 27 0 449 0 449 -26 -6
c-15 -4 -63 -22 -108 -41 -44 -19 -193 -79 -331 -134 -137 -55 -298 -121 -356
-146 l-106 -45 -6 -381 c-3 -211 -9 -390 -13 -400 -7 -19 -49 -23 -59 -6 -4 6
-13 8 -21 5 -7 -3 -21 5 -31 18 -15 19 -23 21 -43 14 -23 -9 -23 -9 -3 -23 52
-37 95 -198 72 -275 -7 -25 -13 -51 -15 -58 -1 -7 -16 -35 -34 -62 -55 -85
-132 -130 -223 -130 -56 0 -142 24 -154 43 -4 6 0 8 10 4 10 -3 17 -3 17 1 0
4 18 18 40 32 22 14 40 28 40 32 0 5 6 8 13 8 6 0 29 15 51 34 36 33 41 56 11
56 -8 0 -39 20 -70 45 -36 30 -60 43 -69 38 -27 -16 -141 -125 -147 -141 -11
-29 -46 43 -52 107 -6 55 5 119 29 176 6 16 2 15 -26 -8 -19 -16 -41 -26 -51
-24 -11 3 -19 -2 -22 -14 -4 -13 -10 -17 -22 -12 -12 4 -16 2 -14 -6 6 -17
-70 -93 -84 -84 -5 3 -7 2 -4 -3 6 -10 -25 -41 -129 -132 -54 -47 -148 -107
-126 -79 8 9 22 19 33 22 11 4 17 11 13 16 -4 6 -11 6 -20 -2 -20 -17 -30 -3
-11 16 20 20 34 19 46 -2 6 -10 11 -13 11 -7 0 11 -23 34 -49 49 -9 5 -12 4
-8 -2 4 -6 0 -16 -8 -23 -8 -7 -15 -9 -15 -5 0 4 -7 2 -15 -5 -13 -11 -13 -15
-3 -22 9 -6 5 -7 -9 -3 -15 4 -23 2 -23 -6 0 -7 -3 -9 -7 -6 -9 9 48 68 59 61
5 -3 7 -2 6 3 -2 5 7 21 19 37 20 25 25 27 40 15 16 -13 17 -12 4 4 -12 15 -6
25 60 94 130 135 148 153 154 153 18 0 85 56 95 80 9 22 16 27 33 22 19 -5 20
-3 9 10 -9 11 -10 18 -2 23 6 3 8 10 5 15 -10 16 16 22 33 8 15 -12 16 -11 4
4 -12 15 -11 22 8 48 21 29 38 42 24 18 -4 -8 -3 -10 2 -5 5 5 9 12 9 16 0 3
16 22 35 42 19 19 118 124 220 234 274 295 391 416 749 777 257 259 322 330
317 344 -4 10 -4 15 0 11 4 -4 14 -1 22 6 13 10 14 9 7 -3 -4 -8 4 -4 19 10
14 13 24 30 22 37 -3 7 1 10 10 6 17 -6 18 8 2 26 -11 11 -10 12 7 3 17 -9 30
1 105 79 l86 90 62 -32 c53 -28 74 -33 159 -37 111 -5 188 10 288 57 133 62
277 208 350 356 61 123 89 245 39 167 -104 -161 -304 -262 -486 -245 -81 7
-70 16 35 28 124 14 286 124 382 259 81 115 110 197 161 456 41 213 77 331
144 483 27 59 48 107 46 107 -1 0 -35 -35 -77 -77z m-1939 -1112 c0 -6 -4 -12
-8 -15 -5 -3 -9 1 -9 9 0 8 4 15 9 15 4 0 8 -4 8 -9z m-63 -56 c-4 -8 -12 -15
-19 -14 -10 0 -10 2 0 6 6 2 12 12 12 21 0 8 3 13 6 9 4 -3 4 -13 1 -22z m37
-39 c-28 -22 -54 -27 -47 -10 3 8 13 14 23 14 11 0 22 5 25 11 4 6 10 8 13 5
3 -4 -3 -13 -14 -20z m-104 -18 c0 -5 -7 -3 -15 6 -8 8 -15 18 -15 22 0 3 7 1
15 -6 8 -7 15 -17 15 -22z m830 12 c0 -5 -4 -10 -10 -10 -5 0 -10 5 -10 10 0
6 5 10 10 10 6 0 10 -4 10 -10z m-790 -24 c0 -3 -4 -8 -10 -11 -5 -3 -10 -1
-10 4 0 6 5 11 10 11 6 0 10 -2 10 -4z m50 -15 c0 -6 -5 -13 -10 -16 -6 -4 -8
-10 -5 -15 3 -5 -4 -14 -15 -20 -24 -13 -24 -12 -4 28 15 30 34 43 34 23z
m-72 -29 c13 11 14 11 10 -2 -6 -18 -30 -20 -34 -2 -1 7 0 8 3 2 3 -7 10 -7
21 2z m-63 -52 c-3 -5 -11 -10 -16 -10 -6 0 -7 5 -4 10 3 6 11 10 16 10 6 0 7
-4 4 -10z m45 1 c0 -6 -4 -13 -10 -16 -5 -3 -10 1 -10 9 0 9 5 16 10 16 6 0
10 -4 10 -9z m-96 -37 c3 -8 2 -12 -4 -9 -6 3 -10 10 -10 16 0 14 7 11 14 -7z
m33 -9 c0 -8 -4 -12 -9 -9 -4 3 -8 9 -8 15 0 5 4 9 8 9 5 0 9 -7 9 -15z m-57
-19 c0 -2 -8 -10 -17 -17 -16 -13 -17 -12 -4 4 13 16 21 21 21 13z m-69 -169
c-10 -9 -11 -8 -5 6 3 10 9 15 12 12 3 -3 0 -11 -7 -18z m149 -251 c0 -3 -4
-8 -10 -11 -5 -3 -10 -1 -10 4 0 6 5 11 10 11 6 0 10 -2 10 -4z m60 -46 c0 -5
-8 -10 -17 -10 -15 0 -16 2 -3 10 19 12 20 12 20 0z m30 -20 c0 -5 -4 -10 -10
-10 -5 0 -10 5 -10 10 0 6 5 10 10 10 6 0 10 -4 10 -10z m-20 -40 c0 -5 -5
-10 -11 -10 -5 0 -7 5 -4 10 3 6 8 10 11 10 2 0 4 -4 4 -10z m-236 -198 c7
-12 -4 -52 -14 -52 -12 0 -23 38 -15 50 7 12 22 13 29 2z m996 -443 c0 -71 -4
-108 -10 -104 -5 3 -10 2 -10 -4 0 -5 4 -12 10 -16 5 -3 9 -59 8 -125 0 -66
-4 -118 -8 -115 -4 2 -5 29 -2 60 4 51 3 55 -14 48 -11 -4 -24 -14 -31 -22
-14 -20 -28 -8 -18 16 5 10 7 24 6 31 -2 10 4 12 21 6 20 -6 21 -5 9 10 -18
22 -30 20 -53 -9 -24 -31 -35 -32 -32 -2 1 12 3 27 3 32 1 6 8 1 16 -9 8 -11
15 -16 16 -10 0 5 2 16 4 25 4 23 -26 20 -46 -5 -12 -15 -14 -27 -8 -44 12
-31 12 -32 -7 -32 -11 0 -14 6 -10 18 3 9 -8 1 -25 -18 -17 -19 -28 -30 -25
-24 3 6 -1 11 -8 11 -9 0 -13 -15 -12 -44 0 -30 3 -39 9 -28 5 9 6 23 3 31 -3
8 -2 13 3 9 5 -3 18 6 29 20 20 25 20 25 43 6 13 -11 21 -22 17 -26 -4 -4 -14
0 -23 9 -21 20 -36 7 -62 -53 -21 -48 -27 -51 -30 -13 -5 49 -10 66 -20 69 -6
2 -13 -3 -17 -12 -3 -9 -2 -13 4 -10 6 3 10 -1 10 -9 0 -9 -4 -16 -10 -16 -5
0 -10 -10 -10 -22 0 -18 -2 -20 -10 -8 -7 11 -11 9 -19 -13 l-11 -28 -30 23
c-27 19 -34 21 -51 9 -12 -7 -18 -8 -15 -3 3 6 0 12 -7 15 -18 7 -43 -8 -29
-17 6 -3 13 0 15 6 3 7 6 9 6 3 0 -5 -4 -17 -9 -25 -8 -13 -11 -12 -23 4 -17
23 -40 12 -32 -15 4 -11 2 -19 -4 -19 -10 0 -15 14 -12 33 2 13 -26 7 -39 -8
-7 -8 -21 -15 -31 -15 -11 0 -19 -4 -19 -10 0 -5 -7 -10 -16 -10 -8 0 -12 -4
-9 -10 3 -5 1 -10 -6 -10 -7 0 -4 -7 7 -15 19 -15 19 -15 0 -8 -15 5 -18 3
-13 -10 3 -9 2 -19 -2 -22 -5 -2 -9 78 -10 178 l-2 182 163 72 c90 40 190 83
223 97 33 13 103 43 155 65 52 22 98 41 103 41 4 0 7 -50 7 -111z m-1320 54
c0 -14 -32 -18 -43 -6 -4 3 1 15 10 25 13 14 18 16 25 6 4 -7 8 -19 8 -25z
m-620 -148 c0 -57 -4 -95 -10 -95 -5 0 -10 -5 -10 -11 0 -5 3 -8 8 -6 15 10
13 -105 -3 -129 -9 -14 -14 -28 -11 -32 2 -4 -4 -8 -15 -9 -15 -1 -22 10 -35
54 -25 85 -15 172 27 255 19 37 37 68 42 68 4 0 7 -43 7 -95z m-420 -25 c0 -5
-4 -10 -10 -10 -5 0 -10 5 -10 10 0 6 5 10 10 10 6 0 10 -4 10 -10z m-30 -30
c0 -5 -2 -10 -4 -10 -3 0 -8 5 -11 10 -3 6 -1 10 4 10 6 0 11 -4 11 -10z m260
-130 c0 -27 -3 -49 -7 -48 -21 5 -94 -43 -139 -91 -31 -33 -56 -51 -63 -47
-15 10 -3 28 12 20 7 -4 9 -4 5 1 -5 4 33 50 82 101 50 51 90 98 90 104 0 5 5
10 10 10 6 0 10 -22 10 -50z m-483 8 c-3 -8 -6 -5 -6 6 -1 11 2 17 5 13 3 -3
4 -12 1 -19z m2520 0 c-3 -8 -6 -5 -6 6 -1 11 2 17 5 13 3 -3 4 -12 1 -19z
m69 -35 c-11 -11 -19 6 -11 24 8 17 8 17 12 0 3 -10 2 -21 -1 -24z m-2616 -3
c0 -5 -5 -10 -11 -10 -5 0 -7 5 -4 10 3 6 8 10 11 10 2 0 4 -4 4 -10z m2610
-20 c-8 -5 -19 -10 -25 -10 -5 0 -3 5 5 10 8 5 20 10 25 10 6 0 3 -5 -5 -10z
m10 -44 c0 -3 -4 -8 -10 -11 -5 -3 -10 -1 -10 4 0 6 5 11 10 11 6 0 10 -2 10
-4z m-50 -30 c0 -2 -7 -7 -16 -10 -8 -3 -12 -2 -9 4 6 10 25 14 25 6z m-340
-10 c0 -3 -4 -8 -10 -11 -5 -3 -10 -1 -10 4 0 6 5 11 10 11 6 0 10 -2 10 -4z
m-119 -39 c-13 -13 -26 -3 -16 12 3 6 11 8 17 5 6 -4 6 -10 -1 -17z m-31 -7
c0 -14 -5 -18 -17 -13 -11 4 -13 8 -5 11 7 2 10 8 6 13 -3 5 0 9 5 9 6 0 11
-9 11 -20z m80 -8 c0 -4 -5 -13 -12 -20 -15 -15 -28 -15 -28 -1 0 5 5 7 10 4
6 -3 10 1 10 9 0 9 5 16 10 16 6 0 10 -4 10 -8z m-2132 -23 c3 -12 2 -12 -7 1
-8 12 -13 12 -30 -4 -12 -11 -21 -14 -21 -8 0 13 31 33 44 29 6 -2 11 -10 14
-18z m-136 -14 c-2 -15 0 -25 7 -25 8 0 7 -6 -1 -20 -7 -11 -17 -20 -22 -20
-4 0 -3 7 4 15 20 24 4 29 -19 6 -22 -22 -28 -37 -11 -26 6 3 10 -1 10 -11 0
-13 -3 -14 -15 -4 -8 7 -22 10 -30 6 -8 -3 -15 -1 -15 5 0 6 -5 7 -12 3 -7 -4
-8 -3 -4 4 4 6 13 9 20 6 18 -7 78 45 72 62 -3 7 0 15 7 18 7 2 13 5 13 5 1 1
-1 -10 -4 -24z m2202 -1 c3 -8 2 -12 -4 -9 -6 3 -10 10 -10 16 0 14 7 11 14
-7z m-2080 -10 c3 -8 2 -12 -4 -9 -6 3 -10 10 -10 16 0 14 7 11 14 -7z m-61
-28 c4 -10 1 -13 -10 -9 -8 3 -19 0 -24 -8 -6 -9 -9 -10 -9 -2 0 9 23 30 36
33 1 0 4 -7 7 -14z m-190 -21 c-3 -9 -8 -14 -10 -11 -3 3 -2 9 2 15 9 16 15
13 8 -4z m227 -19 c0 -2 -7 -6 -15 -10 -8 -3 -15 -1 -15 4 0 6 7 10 15 10 8 0
15 -2 15 -4z m34 -12 c3 -8 2 -12 -4 -9 -6 3 -10 10 -10 16 0 14 7 11 14 -7z
m-254 -5 c0 -5 -5 -7 -11 -4 -5 4 -19 -1 -30 -11 -24 -21 -36 -13 -14 10 18
18 55 22 55 5z m-70 -3 c0 -2 -7 -6 -15 -10 -8 -3 -15 -1 -15 4 0 6 7 10 15
10 8 0 15 -2 15 -4z m120 -10 c0 -3 -4 -8 -10 -11 -5 -3 -10 -1 -10 4 0 6 5
11 10 11 6 0 10 -2 10 -4z m-59 -23 c13 -16 12 -17 -3 -4 -10 7 -18 15 -18 17
0 8 8 3 21 -13z m112 10 c3 -5 -6 -9 -20 -10 -19 -1 -22 1 -12 8 17 11 26 11
32 2z m67 -23 c0 -5 -5 -10 -11 -10 -5 0 -7 5 -4 10 3 6 8 10 11 10 2 0 4 -4
4 -10z m-290 -55 c0 -12 -19 -12 -23 0 -4 9 -1 12 9 8 7 -3 14 -7 14 -8z m174
7 c7 -11 -4 -25 -42 -51 -18 -13 -31 -28 -29 -35 21 -55 23 -52 -104 -175
l-122 -119 -23 23 c-33 33 -32 95 2 163 41 82 123 144 244 183 65 21 67 21 74
11z m775 -123 c51 -29 74 -65 79 -123 3 -41 -1 -58 -20 -86 -66 -98 -213 -89
-263 16 -24 50 -16 126 16 161 50 54 126 67 188 32z m1856 -200 c11 -17 -1
-21 -15 -4 -8 9 -8 15 -2 15 6 0 14 -5 17 -11z m40 -38 c-8 -15 -32 -14 -41 1
-5 8 -2 9 9 5 9 -3 19 -2 23 4 3 6 8 8 11 5 3 -2 2 -9 -2 -15z m-2961 -30 c7
-10 -33 -23 -47 -14 -10 6 11 23 30 23 6 0 14 -4 17 -9z m2997 -28 c-8 -15
-10 -15 -11 -2 0 17 10 32 18 25 2 -3 -1 -13 -7 -23z m-3364 -10 c2 -6 -5 -13
-17 -16 -11 -3 -20 -1 -20 4 0 5 5 9 11 9 5 0 7 5 3 11 -4 7 -1 10 6 7 8 -2
15 -9 17 -15z m-127 -3 c0 -5 -5 -10 -11 -10 -5 0 -7 5 -4 10 3 6 8 10 11 10
2 0 4 -4 4 -10z m40 -24 c0 -11 -19 -15 -25 -6 -3 5 1 10 9 10 9 0 16 -2 16
-4z m3450 -11 c0 -8 -2 -15 -4 -15 -2 0 -6 7 -10 15 -3 8 -1 15 4 15 6 0 10
-7 10 -15z m24 -20 c-9 -14 -18 -25 -21 -25 -5 0 5 18 20 38 17 22 18 13 1
-13z m-129 -16 c0 -28 -29 -38 -39 -13 -7 19 11 47 28 41 6 -2 11 -14 11 -28z
m-3465 -4 c-6 -8 -8 -20 -4 -26 4 -8 3 -9 -4 -5 -16 10 -15 33 1 39 19 8 20 8
7 -8z m1120 -10 c0 -8 -4 -15 -10 -15 -5 0 -10 7 -10 15 0 8 5 15 10 15 6 0
10 -7 10 -15z m1222 -38 c7 -2 10 -7 7 -11 -3 -3 -23 10 -45 30 -25 23 -28 27
-7 11 18 -14 38 -27 45 -30z m-627 3 c3 0 3 6 -1 13 -5 7 0 6 11 -3 17 -14 15
-15 -24 -18 -47 -4 -64 4 -41 18 8 5 21 5 31 -1 10 -5 20 -9 24 -9z m-387 -12
c17 -17 15 -48 -5 -70 -20 -22 -31 -23 -55 -1 -34 31 -17 83 27 83 12 0 26 -5
33 -12z m-1358 -23 c-7 -8 -17 -15 -22 -15 -6 0 -5 7 2 15 7 8 17 15 22 15 6
0 5 -7 -2 -15z m-38 -77 c-9 -9 -12 -7 -12 12 0 19 3 21 12 12 9 -9 9 -15 0
-24z m526 -385 c-5 -25 -28 -28 -28 -4 0 12 6 21 16 21 9 0 14 -7 12 -17z
m2502 -147 c0 -3 -4 -8 -10 -11 -5 -3 -10 -1 -10 4 0 6 5 11 10 11 6 0 10 -2
10 -4z m193 -20 c3 -6 -6 -12 -19 -12 -14 -1 -21 3 -18 10 6 16 32 17 37 2z
m-16 -48 c-3 -8 -6 -5 -6 6 -1 11 2 17 5 13 3 -3 4 -12 1 -19z m-47 -18 c0 -5
-4 -10 -10 -10 -5 0 -10 5 -10 10 0 6 5 10 10 10 6 0 10 -4 10 -10z m40 -19
c0 -5 -7 -12 -16 -15 -14 -5 -15 -4 -4 9 14 17 20 19 20 6z m-2570 -75 c0 -2
-8 -10 -17 -17 -16 -13 -17 -12 -4 4 13 16 21 21 21 13z m-60 -33 c0 -19 -13
-9 -16 12 -1 8 2 13 7 9 5 -3 9 -12 9 -21z m3227 -231 c-9 -2 -15 -7 -12 -12
3 -5 1 -11 -5 -15 -14 -9 -13 18 2 33 6 6 16 8 22 4 7 -4 4 -8 -7 -10z m123
-71 c0 -5 -7 -14 -15 -21 -16 -14 -18 -10 -9 14 6 17 24 22 24 7z m-65 -11 c3
-5 1 -10 -4 -10 -6 0 -11 5 -11 10 0 6 2 10 4 10 3 0 8 -4 11 -10z m-1187
-287 c-17 -108 -50 -228 -91 -323 -43 -102 -57 -126 -66 -112 -3 4 -40 30 -82
56 l-76 48 24 58 c27 67 60 195 66 255 l4 40 79 17 c43 9 95 17 115 17 l36 1
-9 -57z m1843 -17 c-9 -11 -9 -15 1 -19 9 -4 9 -6 1 -6 -6 -1 -15 4 -18 9 -8
12 2 30 17 30 7 0 7 -5 -1 -14z m-31 0 c0 -3 -4 -8 -10 -11 -5 -3 -10 -1 -10
4 0 6 5 11 10 11 6 0 10 -2 10 -4z m-30 -21 c11 -13 10 -14 -4 -9 -9 3 -16 10
-16 15 0 13 6 11 20 -6z m-120 -9 c0 -2 -7 -7 -16 -10 -8 -3 -12 -2 -9 4 6 10
25 14 25 6z m224 -4 c-6 -4 -16 -16 -22 -27 -11 -20 -11 -20 -12 1 0 25 8 34
29 34 10 0 12 -3 5 -8z m-2628 -43 c-12 -74 -60 -163 -128 -234 -59 -63 -73
-71 -126 -74 -7 -1 -10 -5 -7 -11 3 -5 -15 -2 -40 7 -25 10 -45 24 -45 31 0
12 -3 12 -15 2 -13 -11 -14 -10 -9 4 6 17 -5 22 -21 8 -6 -4 20 21 57 55 62
59 128 162 128 199 0 7 15 16 33 19 38 7 170 32 176 34 2 0 1 -17 -3 -40z
m2361 19 c-3 -8 -6 -5 -6 6 -1 11 2 17 5 13 3 -3 4 -12 1 -19z m148 12 c3 -5
2 -10 -4 -10 -5 0 -13 5 -16 10 -3 6 -2 10 4 10 5 0 13 -4 16 -10z m75 -2 c0
-4 -5 -8 -11 -8 -8 0 -7 -6 2 -17 12 -14 12 -15 0 -9 -8 5 -16 3 -22 -5 -6
-11 -11 -11 -21 -1 -9 9 -8 12 6 12 13 0 17 5 13 19 -3 15 0 19 14 18 11 -1
19 -5 19 -9z m118 -38 c7 -11 9 -20 4 -20 -10 0 -32 22 -32 32 0 15 15 8 28
-12z m-205 -9 c-3 -13 2 -24 16 -33 26 -16 27 -24 2 -24 -11 0 -17 4 -15 8 3
4 -2 18 -10 30 -20 28 -20 38 -2 38 9 0 12 -7 9 -19z m-53 -12 c0 -6 -4 -7
-10 -4 -5 3 -10 11 -10 16 0 6 5 7 10 4 6 -3 10 -11 10 -16z m168 -2 c-1 -2 4
-12 12 -22 13 -16 13 -18 0 -13 -8 2 -16 15 -16 27 -1 12 1 20 3 17 3 -2 3 -6
1 -9z m-373 -17 c3 -5 1 -10 -4 -10 -6 0 -11 5 -11 10 0 6 2 10 4 10 3 0 8 -4
11 -10z m333 -1 c-2 -6 -8 -10 -13 -10 -5 0 -11 4 -13 10 -2 6 4 11 13 11 9 0
15 -5 13 -11z m-158 -9 c0 -5 -5 -10 -11 -10 -5 0 -7 5 -4 10 3 6 8 10 11 10
2 0 4 -4 4 -10z m60 -19 c0 -5 -7 -11 -15 -15 -15 -5 -20 5 -8 17 9 10 23 9
23 -2z m-106 -18 c-10 -7 -21 -13 -26 -13 -4 0 -5 6 -2 13 2 7 14 13 25 13 19
0 19 -1 3 -13z m196 7 c0 -5 -2 -10 -4 -10 -3 0 -8 5 -11 10 -3 6 -1 10 4 10
6 0 11 -4 11 -10z m-493 -6 c-3 -3 -12 -4 -19 -1 -8 3 -5 6 6 6 11 1 17 -2 13
-5z m246 -18 c9 -7 17 -17 17 -21 0 -5 -8 -1 -17 7 -10 9 -25 18 -33 21 -13 5
-13 5 0 6 8 0 23 -6 33 -13z m-648 -6 c-3 -5 -12 -10 -18 -10 -7 0 -6 4 3 10
19 12 23 12 15 0z m472 4 c-3 -3 -12 -4 -19 -1 -8 3 -5 6 6 6 11 1 17 -2 13
-5z m-242 -14 c3 -5 1 -10 -4 -10 -6 0 -11 5 -11 10 0 6 2 10 4 10 3 0 8 -4
11 -10z m310 -48 c-3 -3 -11 0 -18 7 -9 10 -8 11 6 5 10 -3 15 -9 12 -12z
m-265 4 c0 -2 -7 -6 -15 -10 -8 -3 -15 -1 -15 4 0 6 7 10 15 10 8 0 15 -2 15
-4z m-59 -23 c13 -15 12 -15 -8 -4 -24 12 -29 21 -14 21 5 0 15 -7 22 -17z
m-101 -67 c0 -3 -4 -8 -10 -11 -5 -3 -10 -1 -10 4 0 6 5 11 10 11 6 0 10 -2
10 -4z m-580 -356 c0 -5 -2 -10 -4 -10 -3 0 -8 5 -11 10 -3 6 -1 10 4 10 6 0
11 -4 11 -10z"/>
<path d="M7640 6660 c0 -5 5 -10 10 -10 6 0 10 5 10 10 0 6 -4 10 -10 10 -5 0
-10 -4 -10 -10z"/>
<path d="M7626 6555 c4 -8 8 -15 10 -15 2 0 4 7 4 15 0 8 -4 15 -10 15 -5 0
-7 -7 -4 -15z"/>
<path d="M7480 6491 c-8 -6 -17 -8 -21 -5 -4 2 -11 -1 -15 -7 -4 -8 -3 -9 4
-5 7 4 12 1 12 -9 0 -10 7 -15 18 -13 9 2 17 10 17 18 0 8 7 18 15 22 13 6 13
7 0 7 -8 0 -22 -3 -30 -8z"/>
<path d="M7408 6463 c7 -3 16 -2 19 1 4 3 -2 6 -13 5 -11 0 -14 -3 -6 -6z"/>
<path d="M7431 6451 c-10 -6 -10 -10 -1 -16 13 -8 24 -1 19 14 -3 6 -10 7 -18
2z"/>
<path d="M7276 6406 c10 -8 21 -12 24 -10 5 6 -21 24 -34 24 -6 0 -1 -6 10
-14z"/>
<path d="M7380 6396 c0 -8 5 -18 10 -21 6 -3 10 1 10 9 0 8 -4 18 -10 21 -5 3
-10 -1 -10 -9z"/>
<path d="M7257 6373 c-7 -12 14 -23 41 -23 14 0 15 2 2 9 -8 6 -17 8 -21 5 -4
-2 -9 1 -11 8 -3 8 -6 9 -11 1z"/>
<path d="M6137 9268 l-27 -42 -1 -246 c-1 -348 1 -432 14 -455 10 -19 11 -19
18 5 7 24 7 24 8 -5 2 -55 21 -5 21 56 0 88 9 118 36 125 26 7 33 24 9 24 -8
0 -15 -4 -15 -8 0 -5 -7 -9 -15 -9 -24 0 -18 7 19 22 25 11 41 12 58 5 22 -10
21 -10 -4 -5 -21 4 -26 2 -22 -9 4 -11 13 -12 41 -4 57 15 63 8 63 -74 0 -122
53 -188 149 -188 118 0 192 127 128 221 -42 62 -144 72 -198 18 -19 -19 -19
-19 -19 30 0 81 9 93 94 124 42 16 89 39 105 53 75 63 57 175 -36 223 -34 17
-104 13 -139 -8 -58 -35 -77 -82 -83 -202 -3 -59 -8 -109 -11 -111 -8 -6 -144
-48 -146 -45 -1 1 -5 123 -8 271 -4 148 -8 271 -9 272 -2 2 -15 -15 -30 -38z
m163 -518 c8 -5 11 -10 5 -10 -5 0 -17 5 -25 10 -8 5 -10 10 -5 10 6 0 17 -5
25 -10z"/>
<path d="M5434 8951 c-156 -71 -185 -238 -53 -307 66 -34 195 -9 257 49 36 33
62 91 62 138 0 51 -37 104 -86 125 -47 20 -131 17 -180 -5z"/>
<path d="M4524 8615 c-4 -8 -3 -22 0 -31 8 -21 50 -14 54 10 6 31 -43 50 -54
21z"/>
<path d="M4523 8474 c-6 -17 14 -36 32 -31 6 2 11 13 13 25 3 17 -2 22 -18 22
-11 0 -23 -7 -27 -16z"/>
<path d="M5513 8458 c-2 -16 0 -16 13 -4 17 18 18 23 1 23 -7 0 -14 -9 -14
-19z"/>
<path d="M5531 8442 c0 -7 12 -30 29 -50 30 -38 59 -130 61 -192 l1 -35 25 53
c26 56 42 149 23 137 -5 -3 -10 -2 -10 4 0 5 6 12 13 14 6 3 0 6 -14 6 -23 1
-26 -2 -23 -26 2 -16 1 -21 -2 -13 -4 8 -18 25 -31 37 -12 12 -23 27 -23 32 0
6 -6 8 -14 5 -11 -4 -13 1 -10 18 4 21 3 21 -4 3 l-9 -20 -5 20 c-3 11 -6 14
-7 7z"/>
<path d="M4537 8348 c-21 -11 -22 -24 -2 -32 20 -7 45 3 45 19 0 18 -23 25
-43 13z"/>
<path d="M4150 8323 c-1 -5 -28 -37 -60 -73 -33 -36 -60 -67 -60 -70 0 -3 26
-25 57 -50 52 -41 57 -43 67 -25 20 34 65 82 101 106 19 13 35 27 35 30 0 4
-12 12 -28 18 -15 6 -42 25 -59 41 -31 29 -53 38 -53 23z"/>
<path d="M4527 8214 c-9 -9 -7 -141 1 -169 4 -12 16 -20 27 -20 19 0 20 7 20
95 0 88 -2 95 -20 98 -12 2 -24 0 -28 -4z"/>
<path d="M5173 8137 l-62 -50 42 -30 c99 -72 240 -158 251 -154 14 6 46 98 46
134 0 25 -1 25 -50 19 -72 -10 -110 15 -148 95 l-17 36 -62 -50z"/>
<path d="M7661 8148 c-1 -28 12 -37 24 -18 3 6 2 10 -4 10 -5 0 -12 8 -14 18
-3 10 -5 6 -6 -10z"/>
<path d="M5037 8026 c-4 -10 2 -16 15 -18 20 -3 20 -3 -2 -28 -13 -16 -20 -19
-16 -8 2 9 -1 19 -9 22 -9 3 -12 0 -8 -10 3 -7 0 -14 -6 -14 -11 0 -15 14 -11
35 1 6 -4 4 -12 -3 -10 -10 -10 -16 0 -32 16 -25 15 -31 -2 -24 -8 3 -17 1
-21 -5 -3 -6 -1 -11 4 -11 6 0 11 -8 11 -17 0 -15 -2 -15 -9 -4 -7 11 -14 4
-30 -27 -30 -58 -61 -84 -188 -160 -62 -36 -111 -68 -109 -69 2 -2 23 1 47 6
24 6 127 15 229 21 102 5 208 16 235 24 68 18 144 58 178 94 l28 29 -148 100
c-81 54 -153 102 -159 106 -7 4 -14 0 -17 -7z m4 -93 c13 -16 12 -17 -3 -4
-10 7 -18 15 -18 17 0 8 8 3 21 -13z"/>
<path d="M3825 7762 c-344 -166 -728 -463 -1012 -781 -192 -215 -402 -528
-532 -795 -195 -401 -313 -888 -315 -1303 -1 -89 3 -165 7 -169 4 -4 58 43
121 104 l113 112 30 -15 c17 -9 33 -22 36 -29 7 -17 -114 -134 -132 -128 -6 2
-11 -1 -11 -8 0 -6 -13 -23 -30 -36 -16 -14 -29 -30 -27 -37 1 -6 -6 -11 -16
-12 -10 0 -41 -22 -68 -50 -49 -49 -50 -51 -44 -95 3 -25 7 -81 9 -125 l4 -80
-14 45 c-9 29 -11 46 -4 48 15 5 12 32 -8 74 -14 30 -19 34 -29 23 -10 -11 -9
-15 7 -20 11 -4 20 -11 20 -16 0 -15 -32 -10 -44 7 -9 12 -11 7 -8 -25 4 -44
2 -47 -29 -30 -12 6 -18 17 -15 25 3 9 2 12 -5 9 -6 -4 -8 -13 -5 -20 2 -7 -1
-18 -7 -25 -9 -10 -8 -12 5 -7 11 4 15 1 14 -11 -2 -10 -13 -18 -27 -20 -19
-2 -21 -1 -9 7 13 9 13 11 -2 11 -9 0 -20 -4 -23 -10 -10 -17 -28 -11 -21 6 5
14 4 15 -9 4 -17 -14 -21 -35 -5 -25 6 3 10 2 10 -3 0 -14 -28 -23 -32 -10 -2
5 -10 2 -18 -8 -14 -16 -13 -17 3 -11 9 4 17 2 17 -5 0 -7 4 -7 13 1 10 8 14
7 14 -4 0 -8 -4 -12 -9 -9 -4 3 -9 -12 -9 -33 l-2 -38 -6 40 c-4 27 -9 36 -15
27 -22 -35 67 -582 95 -582 5 0 42 31 81 68 40 38 100 93 133 123 32 30 146
136 252 237 106 100 200 182 211 182 22 0 42 -19 42 -41 0 -9 -26 -40 -57 -69
-32 -30 -96 -90 -143 -134 -47 -45 -146 -137 -220 -206 -187 -174 -270 -260
-270 -283 0 -10 11 -52 25 -93 14 -41 25 -82 25 -92 -1 -9 -23 -34 -50 -55
-59 -45 -71 -64 -59 -94 12 -33 31 -28 87 22 27 25 54 45 58 45 5 0 28 -40 51
-88 l42 -87 -244 -240 c-135 -132 -245 -248 -245 -256 0 -24 36 -52 57 -45 22
7 46 28 274 246 322 307 343 326 409 386 36 32 106 98 155 145 122 117 336
309 358 320 12 7 17 6 17 -2 0 -8 5 -7 18 2 9 7 4 -1 -11 -18 -17 -18 -24 -32
-17 -35 9 -3 -199 -208 -460 -453 -178 -168 -230 -222 -230 -242 0 -11 16 -44
35 -72 l35 -51 -72 -82 c-40 -46 -133 -150 -208 -232 -226 -249 -270 -300
-270 -314 0 -7 -59 -79 -131 -160 -149 -167 -160 -184 -136 -210 16 -17 12
-22 -54 -88 -84 -83 -395 -414 -435 -464 -25 -31 -25 -33 -4 -14 14 11 122
103 240 204 118 101 238 205 267 233 51 50 52 50 78 33 l26 -17 147 133 c81
72 152 139 159 147 6 9 14 13 18 9 4 -4 119 94 256 218 136 123 250 224 252
224 3 0 7 -12 10 -27 8 -36 52 -103 84 -127 35 -26 109 -32 153 -13 19 8 78
54 130 103 52 48 105 97 119 108 13 12 31 29 39 38 14 16 21 11 93 -56 43 -41
137 -120 209 -176 71 -56 130 -104 130 -107 0 -3 -72 -75 -161 -161 -161 -157
-222 -227 -145 -168 29 21 40 25 46 16 6 -9 11 -7 20 10 11 21 10 22 -6 16
-17 -7 -17 -6 1 14 22 24 26 25 19 5 -5 -11 -2 -13 10 -9 11 4 16 1 16 -11 0
-12 5 -15 19 -10 11 3 22 1 26 -5 5 -8 18 -2 39 17 80 74 61 47 -38 -55 -123
-125 -135 -142 -136 -192 0 -97 107 -166 194 -125 45 22 170 130 339 295 71
69 133 126 137 128 5 2 20 -3 35 -10 l26 -14 -38 -39 c-21 -22 -95 -95 -165
-162 -95 -91 -126 -127 -122 -140 5 -15 4 -16 -5 -3 -10 13 -14 12 -32 -9 -16
-19 -17 -26 -7 -34 10 -6 9 -7 -4 -4 -23 8 -47 -21 -27 -34 8 -5 9 -9 3 -9 -5
0 -16 6 -23 13 -11 10 -11 8 -1 -11 14 -29 8 -38 -13 -18 -13 13 -17 13 -33
-7 -10 -12 -12 -16 -4 -9 18 15 34 16 24 0 -4 -6 -3 -8 4 -4 5 3 12 1 14 -5 3
-8 9 -6 20 5 12 12 22 14 40 7 21 -9 21 -10 3 -11 -11 0 -28 -7 -38 -15 -11
-7 -25 -11 -32 -9 -20 8 -27 -12 -10 -26 9 -8 15 -8 15 -2 0 6 -6 12 -12 15
-7 2 6 3 29 3 22 -1 39 -5 36 -9 -3 -5 -11 -6 -19 -3 -7 3 -16 1 -19 -4 -3 -5
8 -7 25 -5 18 3 33 -1 37 -10 6 -10 29 7 89 64 45 42 108 99 140 126 32 28 82
72 111 98 28 27 57 46 63 42 6 -3 10 -3 9 2 -3 19 2 31 17 37 14 5 15 4 4 -9
-20 -24 6 -18 31 8 l21 22 -7 -25 c-7 -22 -6 -23 8 -12 10 9 17 10 22 2 3 -5
1 -10 -4 -10 -25 0 -8 -18 29 -30 27 -9 40 -19 40 -32 0 -14 8 -18 40 -18 30
0 40 4 40 16 0 9 5 12 13 8 8 -5 7 -2 -2 9 -21 26 -6 32 19 7 12 -12 25 -19
28 -15 4 4 -2 13 -12 21 -20 14 -20 14 0 29 37 28 64 14 37 -19 l-18 -21 23
19 c14 12 20 26 17 35 -5 13 -4 13 6 4 10 -10 19 -6 46 23 17 20 37 33 42 29
7 -3 8 0 5 9 -6 16 10 23 19 9 2 -5 2 -3 1 4 -3 13 1 18 60 71 21 19 36 28 35
20 -3 -27 1 -48 11 -48 5 0 7 7 4 15 -4 10 0 15 15 15 12 0 21 -6 21 -15 0 -8
9 -15 20 -15 11 0 20 -4 20 -10 0 -5 -4 -10 -8 -10 -5 0 -9 -6 -9 -14 0 -9 13
-2 30 17 22 24 31 28 35 18 3 -8 -8 -26 -24 -39 -19 -16 -22 -22 -10 -18 23 8
46 -10 46 -37 0 -19 1 -20 20 -2 12 11 20 13 20 6 0 -25 20 1 21 27 0 24 1 25
9 7 8 -22 -13 -55 -36 -55 -7 0 -16 -5 -20 -12 -5 -7 -2 -9 7 -3 8 4 1 -4 -15
-19 -16 -14 -27 -28 -25 -30 5 -5 173 -34 259 -46 36 -4 120 -12 188 -15 l122
-8 -102 -105 c-56 -58 -96 -108 -90 -110 7 -2 12 -10 12 -18 0 -9 5 -12 10 -9
13 8 42 -20 32 -30 -4 -4 3 -2 16 4 12 6 22 17 21 24 0 9 -2 9 -6 0 -2 -7 -9
-13 -15 -13 -7 0 -7 5 1 13 6 8 9 16 6 18 -2 3 4 5 15 5 10 0 16 -4 14 -8 -3
-4 -2 -8 3 -8 4 1 62 54 128 120 106 106 124 120 160 124 22 3 96 10 165 16
413 38 833 159 1180 342 143 76 399 244 505 332 97 81 306 286 386 378 66 77
164 218 151 218 -12 0 -173 -72 -327 -145 -154 -73 -291 -119 -432 -144 -459
-82 -921 -36 -1383 139 -206 78 -506 230 -454 230 6 0 16 -6 22 -12 10 -10 15
-10 22 1 7 12 12 12 32 -1 14 -9 42 -18 64 -19 22 -2 42 -10 47 -19 5 -10 6
-8 3 7 -4 25 16 47 36 40 7 -2 20 2 29 10 15 13 72 22 139 24 23 0 23 1 5 9
-11 5 -15 9 -9 9 5 1 19 8 30 17 10 8 13 13 7 9 -7 -3 -13 -1 -13 4 0 6 5 11
10 11 6 0 10 7 10 15 0 8 -7 15 -15 15 -8 0 -15 -7 -15 -15 0 -8 -4 -15 -10
-15 -15 0 -12 19 6 37 14 14 17 13 38 -6 26 -25 36 -26 36 -6 0 9 7 18 15 21
19 8 20 34 1 34 -16 0 -32 38 -21 48 4 4 10 1 12 -5 3 -7 11 -13 18 -13 7 0
15 -8 18 -17 3 -16 5 -15 13 4 6 15 14 19 22 14 16 -9 5 -41 -14 -41 -8 0 -14
-4 -14 -10 0 -5 7 -10 15 -10 8 0 15 -9 15 -20 0 -11 -7 -20 -15 -20 -8 0 -15
7 -15 15 0 19 -5 19 -29 -2 -11 -9 -18 -20 -15 -25 7 -11 -10 -10 -22 2 -6 6
-14 -1 -21 -20 -7 -18 -7 -30 -2 -30 5 0 12 6 15 14 4 11 11 12 35 2 27 -10
32 -8 48 13 l19 24 11 -21 c6 -12 18 -22 26 -22 8 0 15 -4 15 -10 0 -5 7 -10
15 -10 8 0 15 5 15 11 0 5 -4 8 -9 4 -6 -3 -15 4 -21 15 -6 11 -17 20 -25 20
-8 0 -15 7 -15 16 0 10 6 14 15 10 9 -3 15 0 15 9 0 8 -7 15 -15 15 -8 0 -15
9 -15 20 0 24 25 27 34 4 3 -8 10 -12 16 -9 15 9 12 25 -5 25 -9 0 -19 8 -22
18 -4 9 -13 24 -21 32 -11 11 -12 15 -2 18 7 3 17 -3 22 -12 13 -23 25 -12 26
25 1 24 -2 29 -11 20 -16 -16 -32 -14 -18 3 10 11 0 21 -53 50 -72 40 -77 41
-108 24 -36 -21 -192 -140 -204 -156 -9 -12 -17 -10 -55 14 -24 15 -46 30 -49
32 -2 1 40 44 93 95 104 98 109 109 82 172 -15 38 -46 55 -97 55 -25 0 -47
-16 -117 -83 -47 -45 -100 -95 -117 -110 l-31 -28 -26 21 c-21 17 -27 30 -27
61 0 34 -4 41 -27 51 l-28 11 25 7 25 6 -22 15 c-13 7 -23 20 -23 27 0 9 -7
11 -20 7 -25 -8 -27 13 -2 31 16 12 16 13 -3 8 -26 -6 -46 8 -47 33 -1 10 -13
27 -26 37 -24 18 -24 18 -17 -3 7 -24 -2 -26 -28 -7 -14 11 -15 15 -5 19 8 3
6 6 -6 6 -12 1 -16 6 -12 17 5 12 1 14 -15 9 -18 -6 -20 -4 -15 13 4 12 1 22
-8 25 -8 3 -21 28 -30 54 -9 27 -31 65 -49 84 -47 50 -73 90 -81 124 -8 35
-17 85 -20 102 -1 7 -15 22 -32 35 -45 35 -57 48 -50 56 4 3 11 0 16 -8 11
-17 15 -14 25 20 7 22 6 23 -9 11 -9 -8 -19 -11 -22 -8 -9 9 5 27 22 27 8 0
14 7 14 15 0 20 -20 19 -36 -2 -7 -10 -15 -15 -19 -12 -3 4 5 19 18 33 21 23
23 30 14 50 -7 14 -15 22 -19 20 -3 -2 -9 0 -13 6 -3 5 -1 10 5 10 6 0 8 5 5
10 -12 20 -32 10 -28 -13 3 -17 -2 -28 -21 -40 -15 -10 -27 -13 -31 -7 -8 13
4 32 15 25 4 -3 14 3 21 12 12 15 12 16 -8 11 -14 -4 -24 -1 -27 8 -3 8 -9 14
-13 13 -22 -4 -24 3 -7 22 10 11 13 19 7 17 -6 -2 -12 2 -13 7 -6 26 -41 37
-81 27 -47 -12 -109 -52 -109 -69 0 -7 -4 -13 -9 -13 -9 0 -21 -36 -27 -84 -2
-16 -6 -31 -8 -33 -2 -3 -54 67 -115 154 -151 215 -300 515 -390 780 -74 221
-136 506 -166 770 -25 218 -26 217 76 88 94 -120 162 -198 275 -317 66 -70 74
-75 88 -60 8 10 102 107 209 217 106 110 225 234 263 275 38 41 96 103 130
137 l61 62 -29 35 c-47 57 -109 200 -78 181 6 -4 7 -11 4 -17 -4 -6 1 -6 14 1
14 7 21 8 24 0 2 -5 13 -11 26 -12 12 0 22 -7 22 -13 0 -13 17 -13 37 -1 9 6
11 3 6 -9 -5 -13 -3 -15 7 -9 10 6 12 4 6 -10 -5 -15 -4 -16 9 -5 8 7 15 8 15
2 0 -5 11 -9 25 -8 27 1 33 11 13 19 -7 3 14 6 47 8 33 1 65 3 70 4 40 7 111
32 174 61 40 19 81 33 90 32 9 -2 15 2 14 9 -2 7 3 10 11 7 7 -3 19 2 26 11 7
8 18 15 24 15 18 0 56 47 56 69 0 10 -13 44 -29 77 l-30 58 40 43 c21 23 39
45 39 49 0 4 -18 -13 -39 -37 -21 -24 -42 -41 -46 -37 -4 4 -3 13 1 20 15 23
13 40 -3 34 -8 -3 -17 -6 -19 -6 -3 0 -2 -6 2 -12 5 -7 9 -21 9 -31 1 -13 -9
-7 -37 22 -21 21 -59 49 -83 62 l-44 23 66 71 c37 38 112 117 167 175 56 58
119 124 140 147 l40 43 -55 23 c-69 30 -185 61 -203 54 -7 -3 -18 -1 -23 4 -5
5 -54 12 -109 14 -54 3 -93 3 -86 -1 6 -3 12 -10 12 -15 0 -6 -5 -7 -11 -3 -6
3 -15 0 -20 -7 -4 -7 -12 -10 -16 -5 -4 5 -2 11 5 13 16 6 15 23 -2 23 -7 0
-16 -9 -19 -21 -3 -11 -15 -23 -26 -26 -12 -3 -21 -10 -21 -16 0 -6 -2 -8 -5
-5 -9 9 6 38 20 38 7 0 15 7 19 15 3 9 0 15 -9 15 -8 0 -15 -5 -15 -11 0 -6
-7 -8 -16 -5 -8 3 -13 2 -10 -3 3 -5 -6 -16 -19 -25 -25 -17 -25 -16 -21 8 3
19 1 23 -10 19 -9 -3 -12 -13 -9 -24 4 -11 2 -19 -4 -19 -6 0 -11 9 -11 20 0
21 -24 28 -35 10 -3 -5 -19 -7 -35 -4 -29 6 -35 -5 -17 -33 5 -7 4 -13 -2 -13
-5 0 -13 9 -16 20 -8 24 -33 27 -42 5 -8 -21 6 -33 17 -15 5 8 12 11 16 7 4
-4 -2 -16 -14 -27 l-21 -20 -8 30 -8 30 -62 -30 c-35 -16 -63 -26 -63 -22 0 4
-5 -1 -11 -11 -7 -12 -17 -16 -30 -12 -11 4 -19 2 -19 -4 0 -6 -7 -11 -15 -11
-8 0 -15 -5 -15 -11 0 -5 -5 -7 -12 -3 -7 5 -8 3 -4 -5 5 -7 14 -10 21 -7 8 3
19 -2 25 -10 9 -10 9 -14 1 -14 -6 0 -11 6 -11 13 0 8 -4 7 -10 -3 -8 -12 -12
-12 -18 -2 -16 23 -57 3 -154 -77 -136 -113 -243 -247 -308 -386 -18 -38 -42
-86 -54 -105 -39 -64 -49 -126 -50 -297 -1 -139 -3 -160 -15 -150 -22 18 -211
307 -217 332 -7 29 48 243 98 379 85 233 214 461 367 651 31 38 64 80 74 92
10 13 15 23 10 23 -4 0 -62 -27 -128 -58z m1035 -252 c0 -4 -7 -7 -15 -6 -23
3 -26 12 -5 13 11 1 20 -2 20 -7z m48 -2 c-6 -18 -28 -21 -28 -4 0 9 7 16 16
16 9 0 14 -5 12 -12z m57 2 c3 -5 1 -10 -4 -10 -6 0 -11 5 -11 10 0 6 2 10 4
10 3 0 8 -4 11 -10z m-393 -17 c-6 -3 -10 -9 -6 -14 3 -5 1 -9 -5 -9 -6 0 -19
-10 -31 -22 -11 -12 -22 -19 -26 -16 -3 4 3 15 14 26 11 11 23 18 26 15 3 -4
6 1 6 10 0 15 20 29 30 19 3 -2 -1 -7 -8 -9z m243 7 c3 -5 1 -10 -4 -10 -6 0
-11 5 -11 10 0 6 2 10 4 10 3 0 8 -4 11 -10z m-65 -30 c0 -5 -5 -10 -11 -10
-5 0 -7 5 -4 10 3 6 8 10 11 10 2 0 4 -4 4 -10z m-161 -26 c-6 -8 -18 -14 -25
-14 -8 0 -11 -6 -8 -15 4 -8 2 -15 -4 -15 -5 0 -12 7 -16 15 -3 8 -1 15 5 15
6 0 7 4 4 10 -3 5 0 7 8 4 8 -3 17 2 21 11 3 9 11 13 16 10 8 -5 7 -11 -1 -21z
m51 17 c0 -5 -6 -11 -13 -14 -8 -3 -14 1 -14 9 0 8 6 14 14 14 7 0 13 -4 13
-9z m79 -5 c10 -12 8 -13 -8 -9 -12 3 -18 9 -15 14 7 12 10 11 23 -5z m94 -1
c4 -8 3 -16 -1 -19 -4 -3 -9 4 -9 15 -2 23 3 25 10 4z m47 11 c0 -3 -4 -8 -10
-11 -5 -3 -10 -1 -10 4 0 6 5 11 10 11 6 0 10 -2 10 -4z m30 -22 c0 -8 -4 -14
-10 -14 -5 0 -10 -7 -10 -15 0 -16 -12 -20 -23 -9 -4 4 3 15 14 25 12 10 18
23 13 30 -4 8 -3 9 4 5 7 -4 12 -14 12 -22z m-467 -15 c5 -3 -2 -8 -15 -11
-14 -3 -30 2 -38 11 -13 13 -12 14 3 8 9 -3 19 -2 23 4 3 6 9 7 13 2 3 -4 10
-11 14 -14z m257 12 c0 -5 -7 -11 -15 -15 -15 -5 -20 5 -8 17 9 10 23 9 23 -2z
m327 3 c-3 -3 -12 -4 -19 -1 -8 3 -5 6 6 6 11 1 17 -2 13 -5z m-673 -29 c-4
-8 -1 -15 5 -15 6 0 11 5 11 12 0 6 3 8 6 5 4 -4 2 -13 -4 -20 -7 -8 -11 -16
-9 -18 1 -2 -6 5 -15 16 -15 17 -22 15 -20 -6 1 -4 -8 -5 -18 -2 -11 3 -20 0
-20 -6 0 -6 -4 -11 -10 -11 -22 0 -7 17 33 38 50 26 48 26 41 7z m423 1 c-5
-16 -24 -18 -30 -4 -3 9 3 14 14 14 11 0 18 -5 16 -10z m-266 -6 c20 -11 27
-40 9 -40 -5 0 -10 -7 -10 -15 0 -8 -7 -15 -15 -15 -8 0 -15 4 -15 9 0 5 7 11
15 15 22 8 18 35 -7 46 -13 5 -17 9 -10 9 7 1 22 -4 33 -9z m119 0 c0 -5 -4
-10 -10 -10 -5 0 -10 5 -10 10 0 6 5 10 10 10 6 0 10 -4 10 -10z m325 0 c3 -5
-1 -10 -9 -10 -9 0 -16 5 -16 10 0 6 4 10 9 10 6 0 13 -4 16 -10z m-546 -31
c-9 -17 -13 -19 -20 -8 -7 12 3 22 29 28 1 1 -2 -9 -9 -20z m58 8 c0 -7 -7
-19 -16 -27 -13 -13 -14 -12 -8 4 4 10 7 22 7 27 0 5 4 9 8 9 5 0 9 -6 9 -13z
m339 -3 c-3 -9 -6 -18 -6 -20 0 -2 -8 -4 -17 -3 -11 0 -13 3 -5 6 6 2 12 11
12 19 0 8 5 14 11 14 6 0 8 -7 5 -16z m-106 -4 c0 -5 -7 -10 -16 -10 -8 0 -12
5 -9 10 3 6 10 10 16 10 5 0 9 -4 9 -10z m170 -12 c0 -11 -12 -10 -30 2 -12 7
-10 9 8 7 12 0 22 -5 22 -9z m-520 -8 c0 -5 -4 -10 -10 -10 -5 0 -10 5 -10 10
0 6 5 10 10 10 6 0 10 -4 10 -10z m230 0 c0 -5 -4 -10 -10 -10 -5 0 -10 5 -10
10 0 6 5 10 10 10 6 0 10 -4 10 -10z m45 0 c-3 -5 -10 -10 -16 -10 -5 0 -9 5
-9 10 0 6 7 10 16 10 8 0 12 -4 9 -10z m315 -10 c0 -5 -2 -10 -4 -10 -3 0 -8
5 -11 10 -3 6 -1 10 4 10 6 0 11 -4 11 -10z m-735 -10 c3 -6 -1 -7 -9 -4 -18
7 -21 14 -7 14 6 0 13 -4 16 -10z m190 0 c3 -5 2 -10 -4 -10 -5 0 -13 5 -16
10 -3 6 -2 10 4 10 5 0 13 -4 16 -10z m71 -12 c5 -8 2 -9 -11 -4 -11 4 -22 2
-26 -6 -4 -7 -11 -9 -16 -5 -8 9 15 27 34 27 6 0 15 -5 19 -12z m-156 -8 c0
-5 -7 -10 -16 -10 -8 0 -12 5 -9 10 3 6 10 10 16 10 5 0 9 -4 9 -10z m230 0
c0 -5 -5 -10 -11 -10 -5 0 -7 5 -4 10 3 6 8 10 11 10 2 0 4 -4 4 -10z m-335
-9 c3 -5 2 -12 -3 -15 -5 -3 -9 1 -9 9 0 17 3 19 12 6z m165 -11 c0 -5 -4 -10
-10 -10 -5 0 -10 5 -10 10 0 6 5 10 10 10 6 0 10 -4 10 -10z m340 6 c0 -3 -4
-8 -10 -11 -5 -3 -10 -1 -10 4 0 6 5 11 10 11 6 0 10 -2 10 -4z m-299 -29
c-10 -9 -11 -8 -5 6 3 10 9 15 12 12 3 -3 0 -11 -7 -18z m-76 -7 c-3 -5 -12
-10 -18 -10 -7 0 -6 4 3 10 19 12 23 12 15 0z m-1335 -430 c0 -23 -25 -27 -33
-6 -7 16 1 26 20 26 7 0 13 -9 13 -20z m1402 -253 c-2 -5 -10 0 -18 10 -20 26
-17 36 4 16 11 -10 17 -22 14 -26z m-301 -181 c19 -13 19 -14 -11 -46 -17 -18
-32 -31 -34 -29 -2 2 -9 14 -15 27 -6 12 -18 22 -26 22 -22 0 -19 6 23 48 35
35 37 36 40 15 2 -13 12 -29 23 -37z m-1491 -126 c0 -13 -7 -20 -20 -20 -13 0
-20 7 -20 20 0 13 7 20 20 20 13 0 20 -7 20 -20z m472 -60 c-15 -19 -16 -19
-29 0 -12 16 -12 22 -1 34 11 12 15 12 30 -1 15 -13 15 -16 0 -33z m658 -350
c7 -22 11 -42 9 -45 -3 -2 -22 0 -42 6 l-37 10 22 39 c12 21 25 37 28 35 4 -2
12 -22 20 -45z m-664 -14 c7 -27 46 -67 88 -88 l28 -15 -30 -12 c-37 -16 -56
-36 -80 -85 l-19 -38 -24 48 c-18 36 -35 54 -66 69 l-43 21 46 22 c35 17 50
32 62 62 20 46 29 50 38 16z m-631 -98 l-30 -26 -27 25 -27 26 27 31 27 32 30
-31 30 -30 -30 -27z m420 -188 c0 -8 -8 -16 -17 -18 -13 -2 -18 3 -18 18 0 15
5 20 18 18 9 -2 17 -10 17 -18z m-238 -142 c-12 -16 -23 -24 -26 -17 -2 8 -6
7 -13 -2 -7 -10 -8 -8 -3 8 4 16 1 23 -15 28 l-22 7 21 19 c12 11 21 25 21 31
0 7 13 -1 29 -16 l30 -29 -22 -29z m-471 -45 c-10 -10 -19 5 -10 18 6 11 8 11
12 0 2 -7 1 -15 -2 -18z m174 -48 c15 -18 7 -43 -16 -52 -24 -9 -46 24 -33 48
12 23 32 24 49 4z m775 -126 c8 -24 -11 -50 -30 -42 -20 7 -29 41 -15 58 14
17 37 9 45 -16z m-311 -75 c9 -23 -2 -54 -19 -54 -8 0 -19 9 -25 21 -9 17 -8
23 7 35 24 18 30 17 37 -2z m-200 -372 l-22 -23 -25 24 c-25 22 -25 23 -6 35
10 7 19 19 19 28 0 12 7 9 28 -12 l27 -29 -21 -23z m984 16 c4 -33 -30 -57
-54 -37 -30 24 -8 72 31 67 13 -2 21 -12 23 -30z m-331 -41 c55 -29 142 -122
171 -184 23 -48 27 -71 26 -138 0 -66 -5 -89 -26 -130 -56 -107 -150 -165
-278 -173 -185 -10 -327 115 -338 299 -9 159 76 288 221 335 55 18 182 13 224
-9z m-1244 -149 c-4 -7 -8 -16 -8 -20 0 -14 -15 -21 -15 -7 0 8 5 20 12 27 16
16 21 15 11 0z m-3 -145 c0 -70 -5 -66 -13 10 -3 34 -2 55 4 52 5 -4 9 -31 9
-62z m2222 -70 c-5 -25 -6 -25 -13 -8 -11 29 -10 35 5 35 9 0 12 -8 8 -27z
m-2287 -3 c-3 -5 -11 -10 -16 -10 -6 0 -7 5 -4 10 3 6 11 10 16 10 6 0 7 -4 4
-10z m-39 -47 c-10 -10 -19 5 -10 18 6 11 8 11 12 0 2 -7 1 -15 -2 -18z m2480
-21 c-14 -14 -28 -23 -31 -20 -9 9 36 58 48 51 5 -3 -3 -17 -17 -31z m-6 -46
c0 -3 -4 -8 -10 -11 -5 -3 -10 -1 -10 4 0 6 5 11 10 11 6 0 10 -2 10 -4z
m-289 -43 c13 -16 12 -17 -3 -4 -10 7 -18 15 -18 17 0 8 8 3 21 -13z m297 -67
c-7 -8 -15 -12 -17 -11 -5 6 10 25 20 25 5 0 4 -6 -3 -14z m81 -25 c-6 -2 -18
4 -27 13 -15 15 -15 15 10 4 15 -7 23 -15 17 -17z m-44 -11 c3 -5 1 -10 -4
-10 -6 0 -11 5 -11 10 0 6 2 10 4 10 3 0 8 -4 11 -10z m-224 -37 c13 -16 12
-17 -3 -4 -17 13 -22 21 -14 21 2 0 10 -8 17 -17z m249 -3 c0 -5 -4 -10 -10
-10 -5 0 -10 5 -10 10 0 6 5 10 10 10 6 0 10 -4 10 -10z m-209 -47 c13 -16 12
-17 -3 -4 -10 7 -18 15 -18 17 0 8 8 3 21 -13z m-1755 -34 c9 -15 -11 -33 -30
-26 -9 4 -13 13 -10 22 7 17 30 20 40 4z m1805 -26 c13 -16 12 -17 -3 -4 -10
7 -18 15 -18 17 0 8 8 3 21 -13z m-2291 -13 c0 -5 -5 -10 -11 -10 -5 0 -7 5
-4 10 3 6 8 10 11 10 2 0 4 -4 4 -10z m2380 -85 l35 -40 -37 34 c-21 19 -38
39 -38 45 0 5 1 7 3 5 1 -2 18 -22 37 -44z m-520 -70 c10 -12 10 -18 0 -30 -7
-8 -18 -15 -25 -15 -19 0 -36 25 -29 44 8 20 38 21 54 1z m-1185 -55 c0 -13
-6 -25 -12 -27 -16 -6 -27 21 -19 43 9 23 31 11 31 -16z m2008 -65 c-3 -9 -8
-14 -10 -11 -3 3 -2 9 2 15 9 16 15 13 8 -4z m-1108 -225 c0 -36 -29 -33 -33
3 -3 23 0 28 15 25 12 -2 18 -12 18 -28z m1332 -14 c0 -8 -6 -12 -15 -9 -11 5
-11 7 0 14 7 5 13 9 14 9 0 0 1 -6 1 -14z m-838 -150 c9 -10 33 -25 54 -33
l38 -16 -38 -17 c-46 -21 -78 -55 -88 -95 l-8 -30 -16 37 c-22 48 -45 73 -82
88 -16 7 -29 15 -29 19 0 3 18 13 39 22 29 12 46 29 61 60 l22 43 15 -30 c9
-16 23 -37 32 -48z m1421 34 c0 -5 -4 -10 -10 -10 -5 0 -10 5 -10 10 0 6 5 10
10 10 6 0 10 -4 10 -10z m63 -4 c4 -10 1 -13 -9 -9 -7 3 -14 9 -14 14 0 14 17
10 23 -5z m-98 -16 c3 -5 1 -10 -4 -10 -6 0 -11 5 -11 10 0 6 2 10 4 10 3 0 8
-4 11 -10z m81 -14 c8 -8 14 -19 14 -25 0 -21 18 -11 24 14 4 14 11 25 17 25
13 0 2 -39 -16 -58 -10 -11 -17 -9 -39 13 -24 24 -34 45 -20 45 3 0 12 -6 20
-14z m-56 -6 c0 -5 -10 -10 -22 -9 -22 0 -22 1 -3 9 11 5 21 9 23 9 1 1 2 -3
2 -9z m-2338 -45 c-3 -16 -1 -17 12 -6 9 7 13 18 9 24 -3 6 -1 7 5 3 9 -5 4
-18 -14 -42 -14 -18 -30 -31 -35 -28 -5 3 -9 -2 -9 -10 0 -8 -6 -19 -14 -23
-8 -4 -39 -32 -71 -61 -31 -29 -61 -49 -67 -46 -6 4 -8 3 -5 -3 8 -12 -36 -56
-46 -46 -4 3 -7 -1 -7 -10 0 -10 -5 -17 -11 -17 -5 0 -7 5 -4 10 3 6 -3 10
-14 10 -12 0 -21 2 -21 5 0 3 26 30 58 60 31 30 76 73 98 96 27 27 46 39 55
34 7 -5 10 -4 5 3 -6 11 19 42 34 42 5 0 13 -8 19 -17 5 -10 13 -15 16 -11 4
4 0 14 -9 23 -17 18 -12 39 7 32 7 -2 10 -12 9 -22z m2296 6 c3 -8 -1 -12 -9
-9 -7 2 -15 10 -17 17 -3 8 1 12 9 9 7 -2 15 -10 17 -17z m49 -3 c-3 -8 -6 -5
-6 6 -1 11 2 17 5 13 3 -3 4 -12 1 -19z m0 -66 c-4 -14 -6 -13 -12 6 -4 12
-11 22 -16 22 -5 0 -9 8 -9 17 0 14 3 13 21 -5 11 -13 18 -30 16 -40z m-120 6
c-3 -8 -6 -5 -6 6 -1 11 2 17 5 13 3 -3 4 -12 1 -19z m63 7 c0 -8 -4 -15 -10
-15 -5 0 -10 7 -10 15 0 8 5 15 10 15 6 0 10 -7 10 -15z m90 -21 c0 -8 -4 -14
-10 -14 -5 0 -10 9 -10 21 0 11 5 17 10 14 6 -3 10 -13 10 -21z m-103 -59 c-4
-8 -2 -17 3 -20 6 -4 10 -1 10 5 0 6 5 8 11 4 8 -5 6 -10 -5 -16 -11 -6 -21
-5 -29 4 -15 14 -11 38 5 38 6 0 8 -7 5 -15z m153 1 c0 -24 -17 -28 -23 -6 -3
13 0 20 9 20 8 0 14 -6 14 -14z m-1126 -33 c-2 -10 0 -25 6 -33 9 -13 11 -13
21 0 9 13 10 13 6 0 -6 -23 -31 -23 -45 1 -10 16 -10 24 -1 35 15 18 18 18 13
-3z m316 10 c0 -5 -5 -15 -10 -23 -9 -13 -11 -13 -19 0 -5 8 -7 18 -5 22 6 10
34 11 34 1z m180 -3 c0 -5 -2 -10 -4 -10 -3 0 -8 5 -11 10 -3 6 -1 10 4 10 6
0 11 -4 11 -10z m-1196 -59 c31 -34 -10 -81 -42 -49 -21 21 -8 68 18 68 4 0
15 -9 24 -19z m-874 -48 c0 -3 -9 -3 -20 0 -11 3 -20 0 -20 -6 0 -6 -3 -8 -6
-4 -12 11 6 25 26 20 11 -3 20 -8 20 -10z m-43 -29 c-3 -3 -12 -4 -19 -1 -8 3
-5 6 6 6 11 1 17 -2 13 -5z m-23 -26 c-4 -7 -9 -6 -13 1 -4 6 -17 -1 -33 -19
-24 -27 -22 -36 7 -30 6 1 -3 -12 -19 -29 -29 -30 -54 -43 -40 -20 4 7 -7 1
-24 -11 -59 -44 -44 -12 28 59 44 43 77 68 86 64 7 -3 11 -10 8 -15z m437 -84
c16 -20 1 -48 -29 -52 -24 -4 -45 28 -36 52 8 21 48 21 65 0z m-555 -50 c-9
-9 -20 -14 -23 -10 -4 3 2 13 13 20 25 18 31 12 10 -10z m1793 10 c41 -16 74
-52 106 -113 27 -53 18 -148 -21 -203 -34 -50 -119 -98 -174 -98 -48 0 -135
44 -164 84 -51 69 -59 143 -22 222 47 102 170 150 275 108z m-1269 -159 c0
-18 -5 -25 -20 -25 -20 0 -28 28 -13 43 15 16 33 6 33 -18z m1829 -19 c23 -50
29 -55 89 -76 l44 -16 -42 -28 -43 -28 7 -55 6 -55 -39 31 c-21 17 -43 31 -48
31 -5 0 -22 -13 -38 -30 -16 -16 -32 -30 -35 -30 -3 0 -4 26 -2 58 l4 57 -43
24 -43 25 46 15 c60 21 72 33 87 81 6 22 16 40 20 40 5 0 18 -20 30 -44z
m1956 -120 c12 -12 12 -16 -3 -29 -15 -13 -19 -13 -30 -1 -10 11 -10 17 0 29
16 18 17 18 33 1z m-817 -128 l52 -26 -54 -25 c-45 -21 -59 -34 -79 -73 l-25
-48 -25 49 c-20 40 -35 55 -73 73 l-48 24 50 26 c38 21 55 38 73 75 l24 49 26
-49 c20 -37 38 -54 79 -75z m-548 90 c0 -7 -4 -19 -9 -26 -6 -10 -10 -10 -20
2 -7 8 -10 20 -6 26 9 14 35 13 35 -2z m-1873 -181 c-3 -8 1 -14 9 -14 8 0 14
7 14 14 0 8 5 11 10 8 6 -4 8 -15 5 -26 -7 -22 5 -25 24 -6 11 10 11 8 2 -10
-15 -29 -14 -32 8 -26 35 9 52 -57 20 -78 -27 -17 -75 -10 -103 16 -30 28 -35
78 -10 113 17 24 29 29 21 9z m2753 -23 c0 -8 -7 -14 -15 -14 -15 0 -21 21 -9
33 10 9 24 -2 24 -19z m-1142 -24 c18 -22 28 -40 22 -40 -6 0 -22 -12 -35 -26
l-25 -27 -21 27 c-11 14 -28 26 -37 26 -12 0 -7 8 16 26 17 14 32 32 32 40 0
23 13 16 48 -26z m-1470 -9 c-1 -5 -12 -3 -23 6 -16 13 -17 15 -2 10 10 -4 17
-1 18 6 0 9 2 9 6 0 2 -7 3 -17 1 -22z m392 -156 c0 -8 -7 -15 -15 -15 -8 0
-15 7 -15 15 0 8 7 15 15 15 8 0 15 -7 15 -15z m1220 -45 c0 -13 -7 -20 -20
-20 -13 0 -20 7 -20 20 0 13 7 20 20 20 13 0 20 -7 20 -20z m-443 -70 c20 0
15 -18 -6 -25 -11 -3 -23 -15 -26 -26 -7 -22 -25 -26 -25 -4 0 8 -12 22 -26
31 -24 16 -24 18 -7 27 10 6 24 19 32 30 13 19 14 19 30 -7 8 -14 21 -26 28
-26z m-666 7 c-10 -9 -11 -8 -5 6 3 10 9 15 12 12 3 -3 0 -11 -7 -18z m79 -27
c0 -32 -24 -42 -49 -19 -12 12 -19 24 -16 28 4 3 16 -5 27 -19 l21 -25 -6 32
c-5 26 -3 31 8 26 8 -3 15 -13 15 -23z m29 -7 c-3 -20 2 -26 11 -13 8 13 10
13 10 -2 0 -9 -4 -19 -9 -22 -12 -8 -34 21 -26 34 7 12 16 13 14 3z m126 -33
c3 -5 1 -10 -4 -10 -6 0 -11 5 -11 10 0 6 2 10 4 10 3 0 8 -4 11 -10z m-93
-42 c-9 -9 -12 -7 -12 12 0 19 3 21 12 12 9 -9 9 -15 0 -24z m-18 -13 c3 -9 0
-12 -9 -9 -7 3 -16 12 -19 19 -3 9 0 12 9 9 7 -3 16 -12 19 -19z m-1127 -385
c-1 -11 -7 -20 -14 -20 -11 0 -11 4 -1 20 7 11 14 20 15 20 1 0 1 -9 0 -20z"/>
<path d="M3090 4302 c0 -5 7 -13 16 -16 10 -4 14 -1 12 6 -5 15 -28 23 -28 10z"/>
<path d="M3210 4299 c0 -5 5 -7 10 -4 6 3 10 8 10 11 0 2 -4 4 -10 4 -5 0 -10
-5 -10 -11z"/>
<path d="M3182 4270 c0 -19 2 -27 5 -17 2 9 2 25 0 35 -3 9 -5 1 -5 -18z"/>
<path d="M3162 4260 c0 -14 2 -19 5 -12 2 6 2 18 0 25 -3 6 -5 1 -5 -13z"/>
<path d="M3210 4270 c-9 -6 -10 -10 -3 -10 6 0 15 5 18 10 8 12 4 12 -15 0z"/>
<path d="M3140 4262 c0 -7 -3 -11 -7 -11 -21 3 -43 -2 -43 -11 0 -14 52 -8 57
8 3 7 3 16 -1 19 -3 4 -6 1 -6 -5z"/>
<path d="M2199 7507 c-77 -41 -135 -162 -89 -187 9 -5 20 -6 24 -3 3 3 6 1 6
-4 0 -6 -6 -13 -12 -16 -7 -2 -9 -8 -5 -13 5 -5 17 1 27 14 10 12 21 22 25 22
4 0 1 -7 -6 -17 -13 -15 -11 -16 14 -9 17 4 27 2 27 -5 0 -8 4 -8 14 0 11 9
15 9 19 -1 3 -10 10 -8 27 7 20 17 23 18 17 3 -4 -12 1 -21 14 -29 11 -6 23
-8 27 -5 3 3 0 6 -6 6 -7 0 -12 7 -12 15 0 14 16 19 52 16 9 -1 19 3 22 8 4 6
13 8 21 4 10 -3 15 2 15 16 0 22 16 29 22 9 6 -17 42 22 46 51 5 35 -41 96
-90 120 -61 29 -141 28 -199 -2z"/>
<path d="M6930 7506 c0 -2 8 -10 18 -17 15 -13 16 -12 3 4 -13 16 -21 21 -21
13z"/>
<path d="M6945 7460 c-3 -5 1 -10 9 -10 9 0 16 5 16 10 0 6 -4 10 -9 10 -6 0
-13 -4 -16 -10z"/>
<path d="M7034 7407 c3 -10 6 -26 6 -35 0 -12 3 -13 11 -5 8 8 7 17 -6 35 -12
16 -16 18 -11 5z"/>
<path d="M7065 7410 c-8 -13 8 -18 29 -10 19 6 19 7 -2 12 -12 4 -24 2 -27 -2z"/>
<path d="M5401 7333 c-28 -11 -71 -57 -71 -75 0 -10 -4 -18 -10 -18 -5 0 -7 7
-4 15 5 11 2 13 -10 9 -8 -3 -15 -13 -14 -22 2 -33 -2 -52 -13 -52 -6 0 -8 9
-4 23 6 21 5 21 -6 2 -7 -11 -11 -20 -8 -21 2 0 -2 -9 -10 -18 -10 -12 -11
-20 -4 -24 5 -4 13 -14 17 -22 3 -8 4 -5 2 8 -3 13 3 27 13 35 10 6 23 21 29
32 9 17 11 17 12 3 0 -9 -7 -24 -16 -32 -8 -9 -13 -16 -9 -16 16 0 153 154
148 166 -5 14 -18 16 -42 7z"/>
<path d="M2340 7250 c0 -5 5 -10 10 -10 6 0 10 5 10 10 0 6 -4 10 -10 10 -5 0
-10 -4 -10 -10z"/>
<path d="M5221 7134 c0 -11 3 -14 6 -6 3 7 2 16 -1 19 -3 4 -6 -2 -5 -13z"/>
<path d="M5176 7085 c4 -8 8 -15 10 -15 2 0 4 7 4 15 0 8 -4 15 -10 15 -5 0
-7 -7 -4 -15z"/>
<path d="M5209 7073 c-13 -16 -12 -17 4 -4 9 7 17 15 17 17 0 8 -8 3 -21 -13z"/>
<path d="M5157 7051 c16 -20 33 -19 33 0 0 6 -4 8 -9 4 -5 -3 -12 -1 -16 5 -3
5 -10 10 -15 10 -6 0 -2 -9 7 -19z"/>
<path d="M5101 7024 c0 -11 3 -14 6 -6 3 7 2 16 -1 19 -3 4 -6 -2 -5 -13z"/>
<path d="M8990 7015 c-14 -8 -19 -14 -10 -14 8 0 26 6 40 14 14 8 19 14 10 14
-8 0 -26 -6 -40 -14z"/>
<path d="M9085 7010 c3 -5 11 -10 16 -10 6 0 7 5 4 10 -3 6 -11 10 -16 10 -6
0 -7 -4 -4 -10z"/>
<path d="M8937 6977 c-3 -8 1 -14 8 -14 7 0 11 6 8 14 -3 7 -6 13 -8 13 -2 0
-5 -6 -8 -13z"/>
<path d="M9018 6973 c7 -3 16 -2 19 1 4 3 -2 6 -13 5 -11 0 -14 -3 -6 -6z"/>
<path d="M9058 6973 c7 -3 16 -2 19 1 4 3 -2 6 -13 5 -11 0 -14 -3 -6 -6z"/>
<path d="M8931 6869 c-1 -16 20 -39 49 -54 8 -4 3 3 -12 16 -14 13 -28 31 -31
39 -5 13 -6 13 -6 -1z"/>
<path d="M5092 6680 c0 -14 2 -19 5 -12 2 6 2 18 0 25 -3 6 -5 1 -5 -13z"/>
<path d="M5430 6690 c-9 -6 -10 -10 -3 -10 6 0 15 5 18 10 8 12 4 12 -15 0z"/>
<path d="M5192 6678 c-6 -9 -4 -19 9 -32 17 -17 19 -18 19 -3 0 9 -5 17 -11
17 -6 0 -9 7 -5 15 7 18 2 19 -12 3z"/>
<path d="M5354 6661 c0 -11 5 -17 13 -14 10 4 11 9 2 19 -15 18 -15 18 -15 -5z"/>
<path d="M5135 6634 c7 -8 16 -14 18 -14 3 0 7 6 10 14 4 9 -2 14 -18 14 -20
0 -22 -3 -10 -14z"/>
<path d="M4910 6610 c-8 -5 -10 -10 -5 -10 6 0 17 5 25 10 8 5 11 10 5 10 -5
0 -17 -5 -25 -10z"/>
<path d="M8509 6432 c-36 -32 -49 -100 -27 -142 35 -66 131 -76 188 -19 24 25
30 39 30 74 0 36 -6 50 -34 79 -29 31 -40 36 -80 36 -36 0 -52 -6 -77 -28z"/>
<path d="M4830 6220 c-13 -8 -12 -10 3 -10 9 0 17 5 17 10 0 12 -1 12 -20 0z"/>
<path d="M9045 6148 c-55 -16 -179 -52 -275 -79 -96 -28 -180 -55 -187 -61
-10 -8 -13 -91 -13 -367 l0 -356 -68 0 c-59 0 -73 -4 -104 -27 -95 -72 -89
-197 12 -266 29 -20 44 -23 88 -20 67 6 117 44 155 118 26 52 27 58 27 224 0
94 4 176 8 182 4 6 34 18 67 27 33 10 114 35 180 56 66 21 123 37 128 34 4 -2
7 -53 7 -113 l0 -108 -39 5 c-90 12 -158 -25 -193 -105 -59 -132 92 -253 228
-184 49 25 68 45 93 102 20 43 21 64 21 508 0 434 -1 462 -17 461 -10 0 -63
-14 -118 -31z m28 -130 c-2 -5 -3 -43 -3 -85 l0 -78 -98 -29 c-100 -30 -271
-76 -285 -76 -4 0 -6 39 -5 87 l3 87 160 46 c88 25 167 49 175 52 19 9 56 5
53 -4z m84 -520 c-3 -8 -6 -5 -6 6 -1 11 2 17 5 13 3 -3 4 -12 1 -19z"/>
<path d="M6225 5990 c-13 -6 -15 -9 -5 -9 8 0 22 4 30 9 18 12 2 12 -25 0z"/>
<path d="M8266 5971 c-15 -28 -69 -80 -103 -99 -15 -9 -9 -18 51 -74 38 -35
73 -65 78 -66 4 -2 30 18 56 45 26 27 58 56 72 65 l25 16 -42 36 c-23 20 -51
52 -63 71 -26 43 -54 45 -74 6z"/>
<path d="M6720 5970 c-9 -6 -10 -10 -3 -10 6 0 15 5 18 10 8 12 4 12 -15 0z"/>
<path d="M4230 5809 c0 -5 5 -7 10 -4 6 3 10 8 10 11 0 2 -4 4 -10 4 -5 0 -10
-5 -10 -11z"/>
<path d="M4078 5783 c7 -3 16 -2 19 1 4 3 -2 6 -13 5 -11 0 -14 -3 -6 -6z"/>
<path d="M4143 5783 c9 -2 23 -2 30 0 6 3 -1 5 -18 5 -16 0 -22 -2 -12 -5z"/>
<path d="M4196 5775 c-3 -8 -1 -15 3 -15 5 0 11 7 15 15 3 8 1 15 -3 15 -5 0
-11 -7 -15 -15z"/>
<path d="M7630 5780 c8 -5 20 -10 25 -10 6 0 3 5 -5 10 -8 5 -19 10 -25 10 -5
0 -3 -5 5 -10z"/>
<path d="M4050 5749 c0 -8 -11 -9 -32 -5 -24 4 -29 3 -18 -4 23 -15 60 -12 60
5 0 8 -2 15 -5 15 -3 0 -5 -5 -5 -11z"/>
<path d="M7605 5750 c3 -5 8 -10 11 -10 2 0 4 5 4 10 0 6 -5 10 -11 10 -5 0
-7 -4 -4 -10z"/>
<path d="M4210 5739 c0 -5 5 -7 10 -4 6 3 10 8 10 11 0 2 -4 4 -10 4 -5 0 -10
-5 -10 -11z"/>
<path d="M4075 5720 c3 -5 8 -10 11 -10 2 0 4 5 4 10 0 6 -5 10 -11 10 -5 0
-7 -4 -4 -10z"/>
<path d="M3970 5716 c0 -2 7 -6 15 -10 8 -3 15 -1 15 4 0 6 -7 10 -15 10 -8 0
-15 -2 -15 -4z"/>
<path d="M4125 5711 c-6 -11 9 -23 19 -14 9 9 7 23 -3 23 -6 0 -12 -4 -16 -9z"/>
<path d="M7680 5703 c0 -10 4 -14 8 -8 4 6 11 13 16 18 5 4 2 7 -7 7 -10 0
-17 -8 -17 -17z"/>
<path d="M4194 5696 c-10 -8 -16 -17 -13 -20 3 -3 14 3 24 14 21 23 17 26 -11
6z"/>
<path d="M3945 5690 c3 -5 13 -10 21 -10 8 0 14 5 14 10 0 6 -9 10 -21 10 -11
0 -17 -4 -14 -10z"/>
<path d="M4040 5692 c0 -5 7 -9 15 -9 8 0 15 4 15 9 0 4 -7 8 -15 8 -8 0 -15
-4 -15 -8z"/>
<path d="M7741 5674 c0 -11 3 -14 6 -6 3 7 2 16 -1 19 -3 4 -6 -2 -5 -13z"/>
<path d="M3899 5669 c-10 -6 -7 -9 14 -9 29 0 35 5 14 13 -8 3 -20 1 -28 -4z"/>
<path d="M3995 5670 c3 -5 15 -10 26 -10 11 0 17 5 14 10 -3 6 -15 10 -26 10
-11 0 -17 -4 -14 -10z"/>
<path d="M4102 5664 c-12 -13 -11 -18 3 -34 10 -11 22 -17 27 -14 5 3 2 14 -7
24 -15 17 -15 19 2 29 13 8 14 10 3 10 -8 0 -21 -7 -28 -15z"/>
<path d="M4200 5660 c0 -5 5 -10 10 -10 6 0 10 5 10 10 0 6 -4 10 -10 10 -5 0
-10 -4 -10 -10z"/>
<path d="M4236 5654 c-11 -28 -6 -39 9 -20 8 11 15 23 15 28 0 14 -18 9 -24
-8z"/>
<path d="M7680 5650 c0 -5 5 -10 10 -10 6 0 10 5 10 10 0 6 -4 10 -10 10 -5 0
-10 -4 -10 -10z"/>
<path d="M3945 5639 c-11 -17 1 -21 15 -4 8 9 8 15 2 15 -6 0 -14 -5 -17 -11z"/>
<path d="M4040 5641 c0 -6 -9 -8 -19 -6 -14 2 -18 -1 -14 -11 4 -10 10 -11 24
-3 17 9 27 29 14 29 -3 0 -5 -4 -5 -9z"/>
<path d="M7680 5616 c7 -7 13 -7 20 0 6 6 3 10 -10 10 -13 0 -16 -4 -10 -10z"/>
<path d="M3863 5601 c-17 -11 -34 -17 -37 -14 -3 4 -6 1 -6 -5 0 -19 29 -14
68 13 43 29 22 34 -25 6z"/>
<path d="M3895 5570 c-3 -5 1 -10 9 -10 8 0 18 5 21 10 3 6 -1 10 -9 10 -8 0
-18 -4 -21 -10z"/>
<path d="M5825 5560 c3 -5 8 -10 11 -10 2 0 4 5 4 10 0 6 -5 10 -11 10 -5 0
-7 -4 -4 -10z"/>
<path d="M1354 5328 c-37 -61 -73 -97 -118 -120 l-40 -20 30 -16 c53 -27 93
-63 121 -108 32 -50 40 -53 53 -20 15 41 71 96 123 123 l51 25 -30 13 c-44 18
-102 73 -124 116 -11 21 -24 40 -29 44 -6 3 -22 -14 -37 -37z"/>
<path d="M3671 5156 c-7 -8 -14 -25 -16 -37 -3 -13 -7 -36 -11 -52 -4 -18 1
-38 15 -60 38 -61 110 -75 174 -32 30 21 35 28 25 39 -7 8 -16 12 -20 9 -5 -2
-8 1 -8 6 0 6 -4 11 -10 11 -5 0 -7 -8 -4 -17 5 -16 3 -15 -10 1 -9 11 -19 17
-22 13 -10 -10 -84 34 -84 50 0 9 -6 13 -15 9 -9 -3 -15 0 -15 9 0 8 4 15 9
15 5 0 8 11 7 25 -1 29 0 29 -15 11z m79 -126 c0 -5 -4 -10 -10 -10 -5 0 -10
5 -10 10 0 6 5 10 10 10 6 0 10 -4 10 -10z"/>
<path d="M3945 4885 c-80 -28 -138 -136 -116 -212 21 -73 94 -132 161 -133 87
0 174 66 185 143 4 25 4 60 0 77 -14 63 -108 141 -169 140 -11 -1 -39 -7 -61
-15z"/>
<path d="M7075 4860 c-4 -7 0 -19 9 -28 13 -14 16 -14 16 -2 0 25 -16 44 -25
30z"/>
<path d="M7105 4861 c-6 -11 9 -23 19 -14 9 9 7 23 -3 23 -6 0 -12 -4 -16 -9z"/>
<path d="M4740 4835 c0 -5 5 -17 10 -25 5 -8 10 -10 10 -5 0 6 -5 17 -10 25
-5 8 -10 11 -10 5z"/>
<path d="M1329 4755 c-8 -16 -29 -39 -46 -50 -39 -24 -40 -29 -8 -43 14 -6 34
-26 44 -44 l20 -31 13 28 c7 16 28 35 51 45 l38 17 -35 21 c-20 12 -41 36 -49
54 l-13 33 -15 -30z"/>
<path d="M4580 4679 c0 -5 5 -7 10 -4 6 3 10 8 10 11 0 2 -4 4 -10 4 -5 0 -10
-5 -10 -11z"/>
<path d="M7535 4590 c-3 -5 -1 -10 4 -10 6 0 11 5 11 10 0 6 -2 10 -4 10 -3 0
-8 -4 -11 -10z"/>
<path d="M7501 4504 c0 -11 3 -14 6 -6 3 7 2 16 -1 19 -3 4 -6 -2 -5 -13z"/>
<path d="M4309 4448 c-6 -13 -5 -48 1 -48 18 0 28 25 14 38 -8 7 -15 11 -15
10z"/>
<path d="M7800 4436 c0 -2 7 -6 15 -10 8 -3 15 -1 15 4 0 6 -7 10 -15 10 -8 0
-15 -2 -15 -4z"/>
<path d="M7781 4364 c0 -11 3 -14 6 -6 3 7 2 16 -1 19 -3 4 -6 -2 -5 -13z"/>
<path d="M7885 4321 c-3 -5 -1 -12 5 -16 5 -3 10 1 10 9 0 18 -6 21 -15 7z"/>
<path d="M4425 4187 c-4 -10 -3 -23 4 -30 16 -16 26 0 14 25 -10 21 -11 22
-18 5z"/>
<path d="M1430 3803 c-30 -11 -60 -48 -70 -84 -14 -51 11 -114 53 -136 92 -47
187 12 187 118 0 33 -6 47 -34 75 -29 29 -41 34 -77 33 -24 0 -51 -3 -59 -6z"/>
<path d="M5645 3260 c4 -12 2 -27 -5 -35 -7 -9 -8 -15 0 -20 5 -3 10 1 10 9 0
9 9 21 19 28 15 9 17 15 9 25 -17 21 -40 16 -33 -7z"/>
<path d="M5696 3243 c-11 -11 -6 -23 9 -23 8 0 15 4 15 9 0 13 -16 22 -24 14z"/>
<path d="M5746 3221 c-4 -7 -5 -15 -2 -18 9 -9 19 4 14 18 -4 11 -6 11 -12 0z"/>
<path d="M5662 3198 c3 -7 13 -15 23 -17 17 -3 17 -2 3 13 -20 19 -31 21 -26
4z"/>
<path d="M5776 3193 c-6 -14 -5 -15 5 -6 7 7 10 15 7 18 -3 3 -9 -2 -12 -12z"/>
<path d="M5720 3172 c0 -5 7 -13 16 -16 10 -4 14 -1 12 6 -5 15 -28 23 -28 10z"/>
<path d="M5650 3150 c0 -5 7 -10 15 -10 8 0 15 5 15 10 0 6 -7 10 -15 10 -8 0
-15 -4 -15 -10z"/>
<path d="M5765 3140 c3 -5 8 -10 11 -10 2 0 4 5 4 10 0 6 -5 10 -11 10 -5 0
-7 -4 -4 -10z"/>
<path d="M5695 3130 c-3 -5 1 -10 9 -10 9 0 16 5 16 10 0 6 -4 10 -9 10 -6 0
-13 -4 -16 -10z"/>
<path d="M5815 3130 c3 -5 8 -10 11 -10 2 0 4 5 4 10 0 6 -5 10 -11 10 -5 0
-7 -4 -4 -10z"/>
<path d="M5626 3121 c-3 -5 1 -11 9 -15 9 -3 15 0 15 9 0 16 -16 20 -24 6z"/>
<path d="M5665 3091 c-6 -11 9 -23 19 -14 9 9 7 23 -3 23 -6 0 -12 -4 -16 -9z"/>
<path d="M6955 3090 c4 -6 -7 -8 -27 -5 l-33 5 29 -10 c22 -7 34 -5 50 5 20
15 20 15 -2 15 -13 0 -20 -4 -17 -10z"/>
<path d="M5710 3076 c0 -2 7 -6 15 -10 8 -3 15 -1 15 4 0 6 -7 10 -15 10 -8 0
-15 -2 -15 -4z"/>
<path d="M5555 3060 c3 -5 8 -10 11 -10 2 0 4 5 4 10 0 6 -5 10 -11 10 -5 0
-7 -4 -4 -10z"/>
<path d="M5700 3050 c0 -5 5 -10 11 -10 5 0 7 5 4 10 -3 6 -8 10 -11 10 -2 0
-4 -4 -4 -10z"/>
<path d="M5655 3029 c-4 -6 -5 -12 -2 -15 2 -3 7 2 10 11 7 17 1 20 -8 4z"/>
<path d="M7125 3030 c-3 -6 1 -7 9 -4 18 7 21 14 7 14 -6 0 -13 -4 -16 -10z"/>
<path d="M7068 3013 c7 -3 16 -2 19 1 4 3 -2 6 -13 5 -11 0 -14 -3 -6 -6z"/>
<path d="M7804 3009 c-5 -8 -3 -9 6 -4 7 4 16 2 22 -6 8 -12 9 -12 6 0 -6 20
-24 25 -34 10z"/>
<path d="M6868 3003 c7 -3 16 -2 19 1 4 3 -2 6 -13 5 -11 0 -14 -3 -6 -6z"/>
<path d="M7028 3003 c7 -3 16 -2 19 1 4 3 -2 6 -13 5 -11 0 -14 -3 -6 -6z"/>
<path d="M5090 2979 c0 -5 5 -7 10 -4 6 3 10 8 10 11 0 2 -4 4 -10 4 -5 0 -10
-5 -10 -11z"/>
<path d="M7950 2980 c-11 -7 -5 -8 20 -4 43 8 51 14 19 14 -13 0 -31 -5 -39
-10z"/>
<path d="M7709 2572 c-41 -37 -50 -102 -20 -149 43 -68 147 -63 191 9 24 39
25 69 5 108 -34 66 -120 82 -176 32z"/>
<path d="M2583 1977 c-103 -101 -205 -199 -226 -217 -41 -36 -56 -73 -37 -95
29 -35 54 -17 278 201 123 119 227 225 233 235 14 27 -5 59 -36 59 -17 0 -74
-49 -212 -183z"/>
<path d="M6947 2052 c-11 -12 -17 -36 -17 -72 0 -51 -29 -120 -50 -120 -12 0
-22 -34 -14 -54 9 -24 21 -20 75 25 l49 41 0 99 c0 105 -8 120 -43 81z"/>
<path d="M3043 1905 c0 -8 4 -12 8 -9 4 2 10 0 14 -5 3 -5 -2 -14 -11 -19 -11
-6 -13 -11 -5 -16 6 -4 11 -2 11 4 0 6 11 15 25 22 26 12 24 34 -2 24 -9 -4
-21 -2 -28 4 -8 7 -12 5 -12 -5z"/>
<path d="M4281 1898 c-14 -23 -14 -23 8 -4 22 20 25 26 13 26 -4 0 -13 -10
-21 -22z"/>
<path d="M4345 1870 c-3 -5 1 -10 9 -10 9 0 16 5 16 10 0 6 -4 10 -9 10 -6 0
-13 -4 -16 -10z"/>
<path d="M4415 1810 c-3 -5 -1 -10 4 -10 6 0 11 5 11 10 0 6 -2 10 -4 10 -3 0
-8 -4 -11 -10z"/>
<path d="M6492 1768 c-31 -31 -13 -59 141 -216 208 -214 207 -213 251 -196 23
9 20 61 -4 76 -11 7 -20 17 -20 21 0 5 -71 81 -158 168 -156 156 -182 175
-210 147z m128 -115 c0 -13 -3 -13 -15 -3 -8 7 -15 16 -15 21 0 5 7 6 15 3 8
-4 15 -13 15 -21z"/>
<path d="M3730 1726 c0 -2 7 -7 16 -10 8 -3 12 -2 9 4 -6 10 -25 14 -25 6z"/>
<path d="M4005 1669 c-11 -16 -1 -19 13 -3 7 8 8 14 3 14 -5 0 -13 -5 -16 -11z"/>
<path d="M6260 1510 c-27 -23 -31 -70 -9 -93 28 -27 55 -29 82 -5 36 33 41 60
16 91 -25 32 -57 35 -89 7z"/>
<path d="M5607 1492 c-22 -24 -21 -27 3 -29 11 -1 20 3 20 8 0 6 -4 7 -10 4
-5 -3 -10 -2 -10 4 0 5 6 11 13 14 6 2 9 7 6 11 -3 3 -13 -2 -22 -12z"/>
<path d="M5361 1448 c-14 -42 -48 -76 -87 -87 -26 -8 -27 -9 -9 -16 48 -16 71
-35 90 -74 l21 -41 12 35 c14 38 55 75 83 75 11 0 19 5 19 10 0 6 -9 10 -19
10 -30 0 -70 40 -85 84 l-13 39 -12 -35z"/>
<path d="M5938 1407 c-24 -51 -64 -93 -110 -116 l-42 -20 36 -15 c43 -19 86
-60 113 -109 22 -42 31 -46 40 -16 11 33 75 98 119 121 l40 20 -35 18 c-45 24
-86 65 -110 112 -11 21 -23 38 -27 38 -5 0 -15 -15 -24 -33z"/>
<path d="M3270 1400 c-23 -7 -23 -8 -3 -9 12 -1 25 4 28 9 3 6 5 10 3 9 -2 -1
-14 -5 -28 -9z"/>
<path d="M3324 1403 c3 -4 -3 -12 -15 -19 -13 -6 -24 -19 -25 -28 -1 -9 2 -14
7 -10 5 3 7 10 4 15 -4 5 3 9 14 9 12 0 21 2 21 4 0 2 3 11 6 20 4 10 1 16 -7
16 -7 0 -9 -3 -5 -7z"/>
<path d="M3251 1323 c-7 -8 -11 -16 -8 -19 2 -2 10 2 17 11 17 20 9 27 -9 8z"/>
<path d="M3838 1293 c-51 -42 -98 -96 -98 -114 0 -24 27 -42 52 -35 13 3 47
28 76 56 56 54 68 91 33 110 -26 13 -25 14 -63 -17z"/>
</g>
</svg>
